<svg width="204" height="204" viewBox="0 0 204 204" fill="none" xmlns="http://www.w3.org/2000/svg">
<g id="Group 52">
<circle id="Ellipse 13" cx="102" cy="102" r="102" fill="url(#paint0_angular_1_1195)"/>
<g id="Ellipse 17" filter="url(#filter0_ddiiii_1_1195)">
<circle cx="102" cy="102" r="98.3571" fill="#263341"/>
</g>
<g id="Union" filter="url(#filter1_d_1_1195)">
<mask id="path-3-inside-1_1_1195" fill="white">
<path fill-rule="evenodd" clip-rule="evenodd" d="M100.543 15.3C100.543 14.4952 101.195 13.8429 102 13.8429C102.805 13.8429 103.457 14.4952 103.457 15.3V30.6C103.457 31.4048 102.805 32.0571 102 32.0571C101.195 32.0571 100.543 31.4048 100.543 30.6V15.3ZM123.032 17.8771C123.24 17.0998 124.039 16.6385 124.817 16.8468C125.594 17.055 126.055 17.854 125.847 18.6314L121.887 33.41C121.679 34.1874 120.88 34.6487 120.103 34.4404C119.325 34.2321 118.864 33.4331 119.072 32.6558L123.032 17.8771ZM146.079 25.6537C145.382 25.2513 144.49 25.4901 144.088 26.187L136.438 39.4372C136.036 40.1342 136.274 41.0253 136.971 41.4277C137.668 41.8301 138.56 41.5913 138.962 40.8944L146.612 27.6442C147.014 26.9472 146.775 26.0561 146.079 25.6537ZM162.276 39.6635C162.845 39.0945 163.767 39.0945 164.336 39.6635C164.906 40.2326 164.906 41.1552 164.336 41.7242L153.518 52.5429C152.949 53.112 152.026 53.112 151.457 52.5429C150.888 51.9739 150.888 51.0513 151.457 50.4822L162.276 39.6635ZM178.346 57.9214C177.944 57.2245 177.053 56.9857 176.356 57.3881L163.106 65.0381C162.409 65.4405 162.17 66.3316 162.572 67.0286C162.975 67.7255 163.866 67.9643 164.563 67.5619L177.813 59.9119C178.51 59.5095 178.749 58.6184 178.346 57.9214ZM185.369 78.1529C186.146 77.9446 186.945 78.4059 187.153 79.1832C187.362 79.9605 186.9 80.7596 186.123 80.9678L171.344 84.9278C170.567 85.1361 169.768 84.6748 169.56 83.8974C169.351 83.1201 169.813 82.3211 170.59 82.1128L185.369 78.1529ZM34.4404 120.103C34.2321 119.325 33.4331 118.864 32.6558 119.072L17.8771 123.032C17.0998 123.24 16.6385 124.039 16.8467 124.817C17.055 125.594 17.854 126.055 18.6314 125.847L33.41 121.887C34.1874 121.679 34.6487 120.88 34.4404 120.103ZM188.7 100.543C189.505 100.543 190.157 101.195 190.157 102C190.157 102.805 189.505 103.457 188.7 103.457H173.4C172.595 103.457 171.943 102.805 171.943 102C171.943 101.195 172.595 100.543 173.4 100.543H188.7ZM32.0571 102C32.0571 101.195 31.4048 100.543 30.6 100.543H15.3C14.4952 100.543 13.8429 101.195 13.8429 102C13.8429 102.805 14.4952 103.457 15.3 103.457H30.6C31.4048 103.457 32.0571 102.805 32.0571 102ZM186.123 123.032C186.9 123.24 187.362 124.039 187.153 124.817C186.945 125.594 186.146 126.055 185.369 125.847L170.59 121.887C169.813 121.679 169.351 120.88 169.56 120.103C169.768 119.325 170.567 118.864 171.344 119.072L186.123 123.032ZM34.4404 83.8974C34.6487 83.1201 34.1874 82.3211 33.41 82.1128L18.6314 78.1528C17.854 77.9446 17.055 78.4059 16.8467 79.1832C16.6385 79.9605 17.0998 80.7595 17.8771 80.9678L32.6558 84.9278C33.4331 85.136 34.2321 84.6747 34.4404 83.8974ZM40.8944 65.0381C41.5913 65.4405 41.8301 66.3316 41.4277 67.0286C41.0253 67.7255 40.1341 67.9643 39.4372 67.5619L26.187 59.9119C25.4901 59.5095 25.2513 58.6184 25.6537 57.9214C26.056 57.2245 26.9472 56.9857 27.6442 57.3881L40.8944 65.0381ZM52.5429 52.5429C53.112 51.9739 53.112 51.0512 52.5429 50.4822L41.7242 39.6635C41.1552 39.0944 40.2325 39.0944 39.6635 39.6635C39.0944 40.2325 39.0944 41.1551 39.6635 41.7242L50.4822 52.5429C51.0513 53.112 51.9739 53.112 52.5429 52.5429ZM67.5619 39.4372C67.9643 40.1342 67.7255 41.0253 67.0286 41.4277C66.3316 41.8301 65.4405 41.5913 65.0381 40.8944L57.3881 27.6442C56.9857 26.9472 57.2245 26.0561 57.9214 25.6537C58.6184 25.2513 59.5096 25.4901 59.9119 26.187L67.5619 39.4372ZM83.8975 34.4403C84.6748 34.2321 85.1361 33.4331 84.9278 32.6557L80.9679 17.8771C80.7596 17.0997 79.9606 16.6384 79.1833 16.8467C78.4059 17.055 77.9446 17.854 78.1529 18.6313L82.1128 33.41C82.3211 34.1873 83.1201 34.6486 83.8975 34.4403ZM89.2387 16.232C89.1337 15.4341 89.6953 14.7021 90.4932 14.5971C91.291 14.492 92.023 15.0537 92.1281 15.8516L94.1251 31.0207C94.2301 31.8186 93.6685 32.5505 92.8706 32.6556C92.0727 32.7606 91.3408 32.1989 91.2357 31.4011L89.2387 16.232ZM113.507 14.5971C112.709 14.4921 111.977 15.0537 111.872 15.8516L109.875 31.0207C109.77 31.8186 110.331 32.5505 111.129 32.6556C111.927 32.7606 112.659 32.1989 112.764 31.4011L114.761 16.232C114.866 15.4341 114.305 14.7021 113.507 14.5971ZM133.832 21.342C134.14 20.5985 134.993 20.2454 135.736 20.5534C136.48 20.8614 136.833 21.7138 136.525 22.4573L130.67 36.5926C130.362 37.3361 129.509 37.6892 128.766 37.3812C128.022 37.0732 127.669 36.2209 127.977 35.4774L133.832 21.342ZM155.667 32.0603C155.028 31.5704 154.113 31.6908 153.624 32.3292L144.31 44.4675C143.82 45.106 143.94 46.0207 144.578 46.5106C145.217 47.0005 146.132 46.8801 146.622 46.2416L155.936 34.1033C156.426 33.4649 156.305 32.5502 155.667 32.0603ZM169.897 48.0644C170.535 47.5745 171.45 47.6949 171.94 48.3333C172.43 48.9718 172.309 49.8865 171.671 50.3764L159.532 59.6905C158.894 60.1804 157.979 60.06 157.489 59.4215C156.999 58.783 157.12 57.8683 157.758 57.3784L169.897 48.0644ZM183.447 68.2637C183.139 67.5202 182.286 67.1672 181.543 67.4751L167.407 73.3302C166.664 73.6381 166.311 74.4905 166.619 75.234C166.927 75.9775 167.779 76.3306 168.523 76.0226L182.658 70.1676C183.401 69.8596 183.755 69.0072 183.447 68.2637ZM187.768 89.2387C188.566 89.1336 189.298 89.6953 189.403 90.4932C189.508 91.291 188.946 92.023 188.148 92.128L172.979 94.1251C172.181 94.2301 171.45 93.6685 171.344 92.8706C171.239 92.0727 171.801 91.3408 172.599 91.2357L187.768 89.2387ZM32.6555 111.129C32.5505 110.331 31.8185 109.77 31.0207 109.875L15.8515 111.872C15.0537 111.977 14.492 112.709 14.5971 113.507C14.7021 114.305 15.4341 114.866 16.2319 114.761L31.401 112.764C32.1989 112.659 32.7606 111.927 32.6555 111.129ZM188.149 111.872C188.946 111.977 189.508 112.709 189.403 113.507C189.298 114.305 188.566 114.866 187.768 114.761L172.599 112.764C171.801 112.659 171.239 111.927 171.345 111.129C171.45 110.332 172.182 109.77 172.979 109.875L188.149 111.872ZM32.6555 92.8706C32.7606 92.0727 32.1989 91.3408 31.4011 91.2357L16.2319 89.2387C15.4341 89.1337 14.7021 89.6953 14.5971 90.4932C14.492 91.291 15.0537 92.023 15.8516 92.1281L31.0207 94.1251C31.8185 94.2301 32.5505 93.6685 32.6555 92.8706ZM36.5926 73.3302C37.3361 73.6382 37.6892 74.4906 37.3812 75.2341C37.0732 75.9776 36.2209 76.3306 35.4774 76.0227L21.342 70.1676C20.5985 69.8596 20.2454 69.0073 20.5534 68.2638C20.8614 67.5203 21.7138 67.1672 22.4573 67.4752L36.5926 73.3302ZM46.5106 59.4215C47.0005 58.783 46.8801 57.8683 46.2416 57.3784L34.1033 48.0643C33.4649 47.5744 32.5501 47.6949 32.0602 48.3333C31.5703 48.9718 31.6908 49.8865 32.3292 50.3764L44.4675 59.6905C45.106 60.1804 46.0207 60.0599 46.5106 59.4215ZM59.6905 44.4676C60.1804 45.106 60.06 46.0207 59.4215 46.5106C58.7831 47.0005 57.8683 46.8801 57.3784 46.2417L48.0644 34.1034C47.5745 33.4649 47.6949 32.5502 48.3334 32.0603C48.9718 31.5704 49.8865 31.6908 50.3764 32.3293L59.6905 44.4676ZM75.234 37.3813C75.9775 37.0733 76.3306 36.2209 76.0226 35.4774L70.1676 21.3421C69.8596 20.5986 69.0072 20.2455 68.2637 20.5535C67.5202 20.8614 67.1672 21.7138 67.4751 22.4573L73.3302 36.5927C73.6382 37.3362 74.4906 37.6892 75.234 37.3813Z"/>
</mask>
<path fill-rule="evenodd" clip-rule="evenodd" d="M100.543 15.3C100.543 14.4952 101.195 13.8429 102 13.8429C102.805 13.8429 103.457 14.4952 103.457 15.3V30.6C103.457 31.4048 102.805 32.0571 102 32.0571C101.195 32.0571 100.543 31.4048 100.543 30.6V15.3ZM123.032 17.8771C123.24 17.0998 124.039 16.6385 124.817 16.8468C125.594 17.055 126.055 17.854 125.847 18.6314L121.887 33.41C121.679 34.1874 120.88 34.6487 120.103 34.4404C119.325 34.2321 118.864 33.4331 119.072 32.6558L123.032 17.8771ZM146.079 25.6537C145.382 25.2513 144.49 25.4901 144.088 26.187L136.438 39.4372C136.036 40.1342 136.274 41.0253 136.971 41.4277C137.668 41.8301 138.56 41.5913 138.962 40.8944L146.612 27.6442C147.014 26.9472 146.775 26.0561 146.079 25.6537ZM162.276 39.6635C162.845 39.0945 163.767 39.0945 164.336 39.6635C164.906 40.2326 164.906 41.1552 164.336 41.7242L153.518 52.5429C152.949 53.112 152.026 53.112 151.457 52.5429C150.888 51.9739 150.888 51.0513 151.457 50.4822L162.276 39.6635ZM178.346 57.9214C177.944 57.2245 177.053 56.9857 176.356 57.3881L163.106 65.0381C162.409 65.4405 162.17 66.3316 162.572 67.0286C162.975 67.7255 163.866 67.9643 164.563 67.5619L177.813 59.9119C178.51 59.5095 178.749 58.6184 178.346 57.9214ZM185.369 78.1529C186.146 77.9446 186.945 78.4059 187.153 79.1832C187.362 79.9605 186.9 80.7596 186.123 80.9678L171.344 84.9278C170.567 85.1361 169.768 84.6748 169.56 83.8974C169.351 83.1201 169.813 82.3211 170.59 82.1128L185.369 78.1529ZM34.4404 120.103C34.2321 119.325 33.4331 118.864 32.6558 119.072L17.8771 123.032C17.0998 123.24 16.6385 124.039 16.8467 124.817C17.055 125.594 17.854 126.055 18.6314 125.847L33.41 121.887C34.1874 121.679 34.6487 120.88 34.4404 120.103ZM188.7 100.543C189.505 100.543 190.157 101.195 190.157 102C190.157 102.805 189.505 103.457 188.7 103.457H173.4C172.595 103.457 171.943 102.805 171.943 102C171.943 101.195 172.595 100.543 173.4 100.543H188.7ZM32.0571 102C32.0571 101.195 31.4048 100.543 30.6 100.543H15.3C14.4952 100.543 13.8429 101.195 13.8429 102C13.8429 102.805 14.4952 103.457 15.3 103.457H30.6C31.4048 103.457 32.0571 102.805 32.0571 102ZM186.123 123.032C186.9 123.24 187.362 124.039 187.153 124.817C186.945 125.594 186.146 126.055 185.369 125.847L170.59 121.887C169.813 121.679 169.351 120.88 169.56 120.103C169.768 119.325 170.567 118.864 171.344 119.072L186.123 123.032ZM34.4404 83.8974C34.6487 83.1201 34.1874 82.3211 33.41 82.1128L18.6314 78.1528C17.854 77.9446 17.055 78.4059 16.8467 79.1832C16.6385 79.9605 17.0998 80.7595 17.8771 80.9678L32.6558 84.9278C33.4331 85.136 34.2321 84.6747 34.4404 83.8974ZM40.8944 65.0381C41.5913 65.4405 41.8301 66.3316 41.4277 67.0286C41.0253 67.7255 40.1341 67.9643 39.4372 67.5619L26.187 59.9119C25.4901 59.5095 25.2513 58.6184 25.6537 57.9214C26.056 57.2245 26.9472 56.9857 27.6442 57.3881L40.8944 65.0381ZM52.5429 52.5429C53.112 51.9739 53.112 51.0512 52.5429 50.4822L41.7242 39.6635C41.1552 39.0944 40.2325 39.0944 39.6635 39.6635C39.0944 40.2325 39.0944 41.1551 39.6635 41.7242L50.4822 52.5429C51.0513 53.112 51.9739 53.112 52.5429 52.5429ZM67.5619 39.4372C67.9643 40.1342 67.7255 41.0253 67.0286 41.4277C66.3316 41.8301 65.4405 41.5913 65.0381 40.8944L57.3881 27.6442C56.9857 26.9472 57.2245 26.0561 57.9214 25.6537C58.6184 25.2513 59.5096 25.4901 59.9119 26.187L67.5619 39.4372ZM83.8975 34.4403C84.6748 34.2321 85.1361 33.4331 84.9278 32.6557L80.9679 17.8771C80.7596 17.0997 79.9606 16.6384 79.1833 16.8467C78.4059 17.055 77.9446 17.854 78.1529 18.6313L82.1128 33.41C82.3211 34.1873 83.1201 34.6486 83.8975 34.4403ZM89.2387 16.232C89.1337 15.4341 89.6953 14.7021 90.4932 14.5971C91.291 14.492 92.023 15.0537 92.1281 15.8516L94.1251 31.0207C94.2301 31.8186 93.6685 32.5505 92.8706 32.6556C92.0727 32.7606 91.3408 32.1989 91.2357 31.4011L89.2387 16.232ZM113.507 14.5971C112.709 14.4921 111.977 15.0537 111.872 15.8516L109.875 31.0207C109.77 31.8186 110.331 32.5505 111.129 32.6556C111.927 32.7606 112.659 32.1989 112.764 31.4011L114.761 16.232C114.866 15.4341 114.305 14.7021 113.507 14.5971ZM133.832 21.342C134.14 20.5985 134.993 20.2454 135.736 20.5534C136.48 20.8614 136.833 21.7138 136.525 22.4573L130.67 36.5926C130.362 37.3361 129.509 37.6892 128.766 37.3812C128.022 37.0732 127.669 36.2209 127.977 35.4774L133.832 21.342ZM155.667 32.0603C155.028 31.5704 154.113 31.6908 153.624 32.3292L144.31 44.4675C143.82 45.106 143.94 46.0207 144.578 46.5106C145.217 47.0005 146.132 46.8801 146.622 46.2416L155.936 34.1033C156.426 33.4649 156.305 32.5502 155.667 32.0603ZM169.897 48.0644C170.535 47.5745 171.45 47.6949 171.94 48.3333C172.43 48.9718 172.309 49.8865 171.671 50.3764L159.532 59.6905C158.894 60.1804 157.979 60.06 157.489 59.4215C156.999 58.783 157.12 57.8683 157.758 57.3784L169.897 48.0644ZM183.447 68.2637C183.139 67.5202 182.286 67.1672 181.543 67.4751L167.407 73.3302C166.664 73.6381 166.311 74.4905 166.619 75.234C166.927 75.9775 167.779 76.3306 168.523 76.0226L182.658 70.1676C183.401 69.8596 183.755 69.0072 183.447 68.2637ZM187.768 89.2387C188.566 89.1336 189.298 89.6953 189.403 90.4932C189.508 91.291 188.946 92.023 188.148 92.128L172.979 94.1251C172.181 94.2301 171.45 93.6685 171.344 92.8706C171.239 92.0727 171.801 91.3408 172.599 91.2357L187.768 89.2387ZM32.6555 111.129C32.5505 110.331 31.8185 109.77 31.0207 109.875L15.8515 111.872C15.0537 111.977 14.492 112.709 14.5971 113.507C14.7021 114.305 15.4341 114.866 16.2319 114.761L31.401 112.764C32.1989 112.659 32.7606 111.927 32.6555 111.129ZM188.149 111.872C188.946 111.977 189.508 112.709 189.403 113.507C189.298 114.305 188.566 114.866 187.768 114.761L172.599 112.764C171.801 112.659 171.239 111.927 171.345 111.129C171.45 110.332 172.182 109.77 172.979 109.875L188.149 111.872ZM32.6555 92.8706C32.7606 92.0727 32.1989 91.3408 31.4011 91.2357L16.2319 89.2387C15.4341 89.1337 14.7021 89.6953 14.5971 90.4932C14.492 91.291 15.0537 92.023 15.8516 92.1281L31.0207 94.1251C31.8185 94.2301 32.5505 93.6685 32.6555 92.8706ZM36.5926 73.3302C37.3361 73.6382 37.6892 74.4906 37.3812 75.2341C37.0732 75.9776 36.2209 76.3306 35.4774 76.0227L21.342 70.1676C20.5985 69.8596 20.2454 69.0073 20.5534 68.2638C20.8614 67.5203 21.7138 67.1672 22.4573 67.4752L36.5926 73.3302ZM46.5106 59.4215C47.0005 58.783 46.8801 57.8683 46.2416 57.3784L34.1033 48.0643C33.4649 47.5744 32.5501 47.6949 32.0602 48.3333C31.5703 48.9718 31.6908 49.8865 32.3292 50.3764L44.4675 59.6905C45.106 60.1804 46.0207 60.0599 46.5106 59.4215ZM59.6905 44.4676C60.1804 45.106 60.06 46.0207 59.4215 46.5106C58.7831 47.0005 57.8683 46.8801 57.3784 46.2417L48.0644 34.1034C47.5745 33.4649 47.6949 32.5502 48.3334 32.0603C48.9718 31.5704 49.8865 31.6908 50.3764 32.3293L59.6905 44.4676ZM75.234 37.3813C75.9775 37.0733 76.3306 36.2209 76.0226 35.4774L70.1676 21.3421C69.8596 20.5986 69.0072 20.2455 68.2637 20.5535C67.5202 20.8614 67.1672 21.7138 67.4751 22.4573L73.3302 36.5927C73.6382 37.3362 74.4906 37.6892 75.234 37.3813Z" fill="url(#paint1_radial_1_1195)"/>
<path d="M123.032 17.8771L122.066 17.6183V17.6183L123.032 17.8771ZM125.847 18.6314L126.813 18.8902V18.8902L125.847 18.6314ZM121.887 33.41L120.921 33.1512V33.1512L121.887 33.41ZM119.072 32.6558L120.038 32.9146V32.9146L119.072 32.6558ZM144.088 26.187L143.222 25.687L143.222 25.687L144.088 26.187ZM146.079 25.6537L145.579 26.5197V26.5197L146.079 25.6537ZM136.438 39.4372L137.304 39.9372L137.304 39.9372L136.438 39.4372ZM136.971 41.4277L136.471 42.2937V42.2938L136.971 41.4277ZM138.962 40.8944L138.096 40.3944V40.3944L138.962 40.8944ZM146.612 27.6442L147.478 28.1442V28.1442L146.612 27.6442ZM164.336 39.6635L163.629 40.3706L163.629 40.3706L164.336 39.6635ZM162.276 39.6635L162.983 40.3706V40.3706L162.276 39.6635ZM164.336 41.7242L163.629 41.0171L163.629 41.0171L164.336 41.7242ZM153.518 52.5429L152.811 51.8358V51.8358L153.518 52.5429ZM151.457 52.5429L150.75 53.2501V53.2501L151.457 52.5429ZM151.457 50.4822L150.75 49.7751L151.457 50.4822ZM176.356 57.3881L176.856 58.2541L176.356 57.3881ZM178.346 57.9214L179.212 57.4214L179.212 57.4214L178.346 57.9214ZM163.106 65.0381L162.606 64.1721L163.106 65.0381ZM162.572 67.0286L163.438 66.5286L163.438 66.5286L162.572 67.0286ZM164.563 67.5619L164.063 66.6959L164.563 67.5619ZM177.813 59.9119L177.313 59.0459V59.0459L177.813 59.9119ZM185.369 78.1529L185.627 79.1188L185.369 78.1529ZM186.123 80.9678L186.382 81.9338L186.123 80.9678ZM171.344 84.9278L171.603 85.8937L171.344 84.9278ZM169.56 83.8974L170.526 83.6386V83.6386L169.56 83.8974ZM170.59 82.1128L170.331 81.1469L170.59 82.1128ZM32.6558 119.072L32.9146 120.038H32.9146L32.6558 119.072ZM17.8771 123.032L17.6183 122.066H17.6183L17.8771 123.032ZM18.6314 125.847L18.8902 126.813H18.8902L18.6314 125.847ZM33.41 121.887L33.6689 122.853H33.6689L33.41 121.887ZM186.123 123.032L186.382 122.066L186.123 123.032ZM185.369 125.847L185.11 126.813L185.369 125.847ZM170.59 121.887L170.849 120.921H170.849L170.59 121.887ZM169.56 120.103L170.526 120.361V120.361L169.56 120.103ZM171.344 119.072L171.085 120.038L171.344 119.072ZM33.41 82.1128L33.6689 81.1469H33.6689L33.41 82.1128ZM18.6314 78.1528L18.3725 79.1188H18.3726L18.6314 78.1528ZM16.8467 79.1832L17.8127 79.442H17.8127L16.8467 79.1832ZM17.8771 80.9678L18.1359 80.0019H18.1359L17.8771 80.9678ZM32.6558 84.9278L32.3969 85.8937H32.397L32.6558 84.9278ZM41.4277 67.0286L40.5617 66.5286H40.5617L41.4277 67.0286ZM40.8944 65.0381L40.3944 65.9041L40.8944 65.0381ZM39.4372 67.5619L39.9372 66.6959H39.9372L39.4372 67.5619ZM26.187 59.9119L26.687 59.0459H26.687L26.187 59.9119ZM25.6537 57.9214L24.7876 57.4214H24.7876L25.6537 57.9214ZM27.6442 57.3881L27.1442 58.2541H27.1442L27.6442 57.3881ZM52.5429 50.4822L51.8358 51.1893L52.5429 50.4822ZM41.7242 39.6635L41.0171 40.3706V40.3706L41.7242 39.6635ZM39.6635 39.6635L38.9564 38.9564L38.9564 38.9564L39.6635 39.6635ZM39.6635 41.7242L40.3706 41.0171L39.6635 41.7242ZM50.4822 52.5429L49.7751 53.25L50.4822 52.5429ZM67.0286 41.4277L67.5286 42.2938L67.0286 41.4277ZM67.5619 39.4372L68.428 38.9372L67.5619 39.4372ZM65.0381 40.8944L65.9041 40.3944L65.0381 40.8944ZM57.3881 27.6442L56.5221 28.1442L57.3881 27.6442ZM57.9214 25.6537L58.4214 26.5197L57.9214 25.6537ZM59.9119 26.187L59.0459 26.687L59.9119 26.187ZM84.9278 32.6557L83.9619 32.9145V32.9145L84.9278 32.6557ZM80.9679 17.8771L81.9338 17.6182V17.6182L80.9679 17.8771ZM78.1529 18.6313L77.187 18.8901V18.8901L78.1529 18.6313ZM82.1128 33.41L81.1469 33.6688V33.6688L82.1128 33.41ZM90.4932 14.5971L90.6237 15.5885V15.5885L90.4932 14.5971ZM89.2387 16.232L88.2472 16.3625V16.3625L89.2387 16.232ZM92.1281 15.8516L91.1366 15.9821V15.9821L92.1281 15.8516ZM94.1251 31.0207L95.1165 30.8902L94.1251 31.0207ZM92.8706 32.6556L93.0011 33.647H93.0012L92.8706 32.6556ZM91.2357 31.4011L92.2272 31.2705L91.2357 31.4011ZM111.872 15.8516L112.863 15.9821V15.9821L111.872 15.8516ZM113.507 14.5971L113.637 13.6057V13.6057L113.507 14.5971ZM109.875 31.0207L108.883 30.8902L109.875 31.0207ZM111.129 32.6556L111.26 31.6641L111.26 31.6641L111.129 32.6556ZM112.764 31.4011L111.773 31.2706L112.764 31.4011ZM114.761 16.232L115.753 16.3625V16.3625L114.761 16.232ZM133.832 21.342L132.909 20.9593V20.9593L133.832 21.342ZM136.525 22.4573L135.601 22.0746V22.0746L136.525 22.4573ZM130.67 36.5926L131.594 36.9753V36.9753L130.67 36.5926ZM128.766 37.3812L129.149 36.4573L129.149 36.4573L128.766 37.3812ZM127.977 35.4774L128.901 35.8601V35.8601L127.977 35.4774ZM153.624 32.3292L152.83 31.7205V31.7205L153.624 32.3292ZM155.667 32.0603L156.275 31.2669V31.2669L155.667 32.0603ZM144.31 44.4675L145.103 45.0763V45.0763L144.31 44.4675ZM144.578 46.5106L145.187 45.7173V45.7173L144.578 46.5106ZM146.622 46.2416L147.415 46.8504V46.8504L146.622 46.2416ZM155.936 34.1033L155.142 33.4946V33.4946L155.936 34.1033ZM171.94 48.3333L172.733 47.7246L172.733 47.7246L171.94 48.3333ZM169.897 48.0644L170.505 48.8577V48.8577L169.897 48.0644ZM171.671 50.3764L172.28 51.1698L171.671 50.3764ZM159.532 59.6905L158.924 58.8971L159.532 59.6905ZM157.489 59.4215L158.283 58.8127L158.283 58.8127L157.489 59.4215ZM157.758 57.3784L157.15 56.5851L157.758 57.3784ZM181.543 67.4751L181.925 68.399V68.399L181.543 67.4751ZM183.447 68.2637L182.523 68.6464L182.523 68.6464L183.447 68.2637ZM167.407 73.3302L167.79 74.2541H167.79L167.407 73.3302ZM166.619 75.234L165.695 75.6167L165.695 75.6167L166.619 75.234ZM168.523 76.0226L168.14 75.0987L168.523 76.0226ZM182.658 70.1676L183.041 71.0914V71.0914L182.658 70.1676ZM189.403 90.4932L188.412 90.6237L189.403 90.4932ZM187.768 89.2387L187.899 90.2301L187.768 89.2387ZM188.148 92.128L188.279 93.1195L188.148 92.128ZM172.979 94.1251L172.849 93.1336L172.979 94.1251ZM171.344 92.8706L170.353 93.0011V93.0011L171.344 92.8706ZM172.599 91.2357L172.468 90.2443L172.599 91.2357ZM31.0207 109.875L30.8901 108.883L31.0207 109.875ZM32.6555 111.129L31.6641 111.26L32.6555 111.129ZM15.8515 111.872L15.9821 112.863H15.9821L15.8515 111.872ZM14.5971 113.507L13.6056 113.637H13.6056L14.5971 113.507ZM16.2319 114.761L16.3625 115.753H16.3625L16.2319 114.761ZM31.401 112.764L31.2705 111.773L31.401 112.764ZM189.403 113.507L190.394 113.637L189.403 113.507ZM188.149 111.872L188.279 110.881L188.149 111.872ZM187.768 114.761L187.638 115.753L187.768 114.761ZM172.599 112.764L172.73 111.773L172.599 112.764ZM171.345 111.129L172.336 111.26L171.345 111.129ZM172.979 109.875L172.849 110.866L172.979 109.875ZM31.4011 91.2357L31.2705 92.2272L31.4011 91.2357ZM32.6555 92.8706L33.647 93.0011L32.6555 92.8706ZM16.2319 89.2387L16.3625 88.2472H16.3625L16.2319 89.2387ZM14.5971 90.4932L15.5885 90.6237H15.5885L14.5971 90.4932ZM15.8516 92.1281L15.9821 91.1366H15.9821L15.8516 92.1281ZM31.0207 94.1251L30.8901 95.1165L31.0207 94.1251ZM37.3812 75.2341L36.4573 74.8514L37.3812 75.2341ZM36.5926 73.3302L36.9753 72.4063H36.9753L36.5926 73.3302ZM35.4774 76.0227L35.8601 75.0988H35.86L35.4774 76.0227ZM21.342 70.1676L20.9593 71.0915L20.9593 71.0915L21.342 70.1676ZM20.5534 68.2638L21.4773 68.6464L20.5534 68.2638ZM22.4573 67.4752L22.0746 68.399L22.0746 68.399L22.4573 67.4752ZM46.2416 57.3784L45.6329 58.1717H45.6329L46.2416 57.3784ZM46.5106 59.4215L47.304 60.0302V60.0302L46.5106 59.4215ZM34.1033 48.0643L33.4946 48.8577H33.4946L34.1033 48.0643ZM32.0602 48.3333L32.8536 48.9421L32.8536 48.9421L32.0602 48.3333ZM32.3292 50.3764L31.7205 51.1698H31.7205L32.3292 50.3764ZM44.4675 59.6905L43.8588 60.4838L44.4675 59.6905ZM59.4215 46.5106L58.8128 45.7173L58.8127 45.7173L59.4215 46.5106ZM59.6905 44.4676L58.8971 45.0763L59.6905 44.4676ZM57.3784 46.2417L56.5851 46.8504L57.3784 46.2417ZM48.0644 34.1034L48.8577 33.4946L48.0644 34.1034ZM48.3334 32.0603L47.7246 31.2669L48.3334 32.0603ZM50.3764 32.3293L51.1698 31.7205V31.7205L50.3764 32.3293ZM76.0226 35.4774L75.0988 35.8601V35.8601L76.0226 35.4774ZM75.234 37.3813L75.6167 38.3051L75.234 37.3813ZM70.1676 21.3421L69.2437 21.7247L69.2437 21.7247L70.1676 21.3421ZM67.4751 22.4573L68.399 22.0746V22.0746L67.4751 22.4573ZM73.3302 36.5927L72.4063 36.9753V36.9753L73.3302 36.5927ZM102 12.8429C100.643 12.8429 99.5428 13.943 99.5428 15.3H101.543C101.543 15.0475 101.748 14.8429 102 14.8429V12.8429ZM104.457 15.3C104.457 13.943 103.357 12.8429 102 12.8429V14.8429C102.252 14.8429 102.457 15.0475 102.457 15.3H104.457ZM104.457 30.6V15.3H102.457V30.6H104.457ZM102 33.0571C103.357 33.0571 104.457 31.957 104.457 30.6H102.457C102.457 30.8525 102.252 31.0571 102 31.0571V33.0571ZM99.5428 30.6C99.5428 31.957 100.643 33.0571 102 33.0571V31.0571C101.748 31.0571 101.543 30.8525 101.543 30.6H99.5428ZM99.5428 15.3V30.6H101.543V15.3H99.5428ZM125.076 15.8808C123.765 15.5296 122.417 16.3075 122.066 17.6183L123.998 18.1359C124.063 17.8921 124.314 17.7473 124.558 17.8127L125.076 15.8808ZM126.813 18.8902C127.164 17.5794 126.386 16.2321 125.076 15.8808L124.558 17.8127C124.802 17.878 124.947 18.1287 124.881 18.3726L126.813 18.8902ZM122.853 33.6689L126.813 18.8902L124.881 18.3726L120.921 33.1512L122.853 33.6689ZM119.844 35.4063C121.155 35.7576 122.502 34.9797 122.853 33.6689L120.921 33.1512C120.856 33.3951 120.605 33.5398 120.361 33.4745L119.844 35.4063ZM118.106 32.3969C117.755 33.7078 118.533 35.0551 119.844 35.4063L120.361 33.4745C120.117 33.4091 119.973 33.1585 120.038 32.9146L118.106 32.3969ZM122.066 17.6183L118.106 32.397L120.038 32.9146L123.998 18.1359L122.066 17.6183ZM144.954 26.6871C145.08 26.4684 145.36 26.3935 145.579 26.5197L146.579 24.7877C145.403 24.1091 143.901 24.5118 143.222 25.687L144.954 26.6871ZM137.304 39.9372L144.954 26.687L143.222 25.687L135.572 38.9372L137.304 39.9372ZM137.471 40.5617C137.253 40.4355 137.178 40.1559 137.304 39.9372L135.572 38.9372C134.894 40.1125 135.296 41.6152 136.471 42.2937L137.471 40.5617ZM138.096 40.3944C137.97 40.613 137.69 40.6879 137.471 40.5617L136.471 42.2938C137.647 42.9723 139.149 42.5696 139.828 41.3944L138.096 40.3944ZM145.746 27.1442L138.096 40.3944L139.828 41.3944L147.478 28.1442L145.746 27.1442ZM145.579 26.5197C145.797 26.646 145.872 26.9255 145.746 27.1442L147.478 28.1442C148.156 26.969 147.754 25.4662 146.579 24.7877L145.579 26.5197ZM165.044 38.9564C164.084 37.9968 162.528 37.9968 161.569 38.9564L162.983 40.3706C163.161 40.1921 163.451 40.1921 163.629 40.3706L165.044 38.9564ZM165.044 42.4313C166.003 41.4718 166.003 39.916 165.044 38.9564L163.629 40.3706C163.808 40.5491 163.808 40.8386 163.629 41.0171L165.044 42.4313ZM154.225 53.2501L165.044 42.4313L163.629 41.0171L152.811 51.8358L154.225 53.2501ZM150.75 53.2501C151.71 54.2096 153.265 54.2096 154.225 53.2501L152.811 51.8358C152.632 52.0144 152.343 52.0144 152.164 51.8358L150.75 53.2501ZM150.75 49.7751C149.79 50.7347 149.79 52.2905 150.75 53.2501L152.164 51.8358C151.986 51.6573 151.986 51.3679 152.164 51.1893L150.75 49.7751ZM161.569 38.9564L150.75 49.7751L152.164 51.1893L162.983 40.3706L161.569 38.9564ZM176.856 58.2541C177.074 58.1279 177.354 58.2028 177.48 58.4214L179.212 57.4214C178.534 56.2462 177.031 55.8435 175.856 56.5221L176.856 58.2541ZM163.606 65.9041L176.856 58.2541L175.856 56.5221L162.606 64.1721L163.606 65.9041ZM163.438 66.5286C163.312 66.3099 163.387 66.0303 163.606 65.9041L162.606 64.1721C161.43 64.8506 161.028 66.3533 161.706 67.5286L163.438 66.5286ZM164.063 66.6959C163.844 66.8221 163.565 66.7472 163.438 66.5286L161.706 67.5286C162.385 68.7038 163.888 69.1065 165.063 68.428L164.063 66.6959ZM177.313 59.0459L164.063 66.6959L165.063 68.428L178.313 60.778L177.313 59.0459ZM177.48 58.4214C177.607 58.6401 177.532 58.9197 177.313 59.0459L178.313 60.778C179.488 60.0994 179.891 58.5967 179.212 57.4214L177.48 58.4214ZM188.119 78.9244C187.768 77.6136 186.421 76.8357 185.11 77.1869L185.627 79.1188C185.871 79.0534 186.122 79.1982 186.187 79.442L188.119 78.9244ZM186.382 81.9338C187.693 81.5825 188.47 80.2352 188.119 78.9244L186.187 79.442C186.253 79.6859 186.108 79.9366 185.864 80.0019L186.382 81.9338ZM171.603 85.8937L186.382 81.9338L185.864 80.0019L171.085 83.9618L171.603 85.8937ZM168.594 84.1562C168.945 85.467 170.292 86.2449 171.603 85.8937L171.085 83.9618C170.842 84.0272 170.591 83.8825 170.526 83.6386L168.594 84.1562ZM170.331 81.1469C169.02 81.4981 168.242 82.8454 168.594 84.1562L170.526 83.6386C170.46 83.3947 170.605 83.1441 170.849 83.0787L170.331 81.1469ZM185.11 77.1869L170.331 81.1469L170.849 83.0787L185.627 79.1188L185.11 77.1869ZM32.9146 120.038C33.1584 119.973 33.4091 120.118 33.4745 120.361L35.4063 119.844C35.0551 118.533 33.7078 117.755 32.3969 118.106L32.9146 120.038ZM18.1359 123.998L32.9146 120.038L32.3969 118.106L17.6183 122.066L18.1359 123.998ZM17.8127 124.558C17.7473 124.314 17.892 124.063 18.1359 123.998L17.6183 122.066C16.3075 122.417 15.5296 123.765 15.8808 125.076L17.8127 124.558ZM18.3726 124.881C18.1287 124.947 17.878 124.802 17.8127 124.558L15.8808 125.076C16.232 126.386 17.5794 127.164 18.8902 126.813L18.3726 124.881ZM33.1512 120.921L18.3726 124.881L18.8902 126.813L33.6689 122.853L33.1512 120.921ZM33.4745 120.361C33.5398 120.605 33.3951 120.856 33.1512 120.921L33.6689 122.853C34.9797 122.502 35.7575 121.155 35.4063 119.844L33.4745 120.361ZM191.157 102C191.157 100.643 190.057 99.5429 188.7 99.5429V101.543C188.952 101.543 189.157 101.748 189.157 102H191.157ZM188.7 104.457C190.057 104.457 191.157 103.357 191.157 102H189.157C189.157 102.252 188.952 102.457 188.7 102.457V104.457ZM173.4 104.457H188.7V102.457H173.4V104.457ZM170.943 102C170.943 103.357 172.043 104.457 173.4 104.457V102.457C173.148 102.457 172.943 102.252 172.943 102H170.943ZM173.4 99.5429C172.043 99.5429 170.943 100.643 170.943 102H172.943C172.943 101.748 173.148 101.543 173.4 101.543V99.5429ZM188.7 99.5429H173.4V101.543H188.7V99.5429ZM30.6 101.543C30.8525 101.543 31.0571 101.748 31.0571 102H33.0571C33.0571 100.643 31.9571 99.5429 30.6 99.5429V101.543ZM15.3 101.543H30.6V99.5429H15.3V101.543ZM14.8429 102C14.8429 101.748 15.0475 101.543 15.3 101.543V99.5429C13.943 99.5429 12.8429 100.643 12.8429 102H14.8429ZM15.3 102.457C15.0475 102.457 14.8429 102.252 14.8429 102H12.8429C12.8429 103.357 13.943 104.457 15.3 104.457V102.457ZM30.6 102.457H15.3V104.457H30.6V102.457ZM31.0571 102C31.0571 102.252 30.8525 102.457 30.6 102.457V104.457C31.957 104.457 33.0571 103.357 33.0571 102H31.0571ZM188.119 125.076C188.47 123.765 187.693 122.417 186.382 122.066L185.864 123.998C186.108 124.063 186.253 124.314 186.187 124.558L188.119 125.076ZM185.11 126.813C186.421 127.164 187.768 126.386 188.119 125.076L186.187 124.558C186.122 124.802 185.871 124.947 185.627 124.881L185.11 126.813ZM170.331 122.853L185.11 126.813L185.627 124.881L170.849 120.921L170.331 122.853ZM168.594 119.844C168.242 121.155 169.02 122.502 170.331 122.853L170.849 120.921C170.605 120.856 170.46 120.605 170.526 120.361L168.594 119.844ZM171.603 118.106C170.292 117.755 168.945 118.533 168.594 119.844L170.526 120.361C170.591 120.118 170.842 119.973 171.085 120.038L171.603 118.106ZM186.382 122.066L171.603 118.106L171.085 120.038L185.864 123.998L186.382 122.066ZM33.1512 83.0787C33.3951 83.1441 33.5398 83.3947 33.4745 83.6386L35.4063 84.1562C35.7575 82.8454 34.9797 81.4981 33.6689 81.1469L33.1512 83.0787ZM18.3726 79.1188L33.1512 83.0787L33.6689 81.1469L18.8902 77.1869L18.3726 79.1188ZM17.8127 79.442C17.878 79.1982 18.1287 79.0534 18.3725 79.1188L18.8902 77.1869C17.5794 76.8357 16.232 77.6136 15.8808 78.9244L17.8127 79.442ZM18.1359 80.0019C17.892 79.9366 17.7473 79.6859 17.8127 79.442L15.8808 78.9244C15.5296 80.2352 16.3075 81.5825 17.6183 81.9338L18.1359 80.0019ZM32.9146 83.9618L18.1359 80.0019L17.6183 81.9338L32.3969 85.8937L32.9146 83.9618ZM33.4745 83.6386C33.4091 83.8825 33.1585 84.0272 32.9146 83.9618L32.397 85.8937C33.7077 86.2449 35.0551 85.467 35.4063 84.1562L33.4745 83.6386ZM42.2937 67.5286C42.9722 66.3533 42.5696 64.8506 41.3944 64.1721L40.3944 65.9041C40.613 66.0303 40.6879 66.3099 40.5617 66.5286L42.2937 67.5286ZM38.9372 68.4279C40.1124 69.1065 41.6152 68.7038 42.2937 67.5286L40.5617 66.5286C40.4354 66.7472 40.1559 66.8221 39.9372 66.6959L38.9372 68.4279ZM25.687 60.7779L38.9372 68.4279L39.9372 66.6959L26.687 59.0459L25.687 60.7779ZM24.7876 57.4214C24.1091 58.5967 24.5118 60.0994 25.687 60.778L26.687 59.0459C26.4684 58.9197 26.3935 58.6401 26.5197 58.4214L24.7876 57.4214ZM28.1442 56.5221C26.9689 55.8435 25.4662 56.2462 24.7876 57.4214L26.5197 58.4214C26.6459 58.2028 26.9255 58.1279 27.1442 58.2541L28.1442 56.5221ZM41.3944 64.1721L28.1442 56.5221L27.1442 58.2541L40.3944 65.9041L41.3944 64.1721ZM51.8358 51.1893C52.0144 51.3678 52.0144 51.6573 51.8358 51.8358L53.25 53.25C54.2096 52.2904 54.2096 50.7347 53.25 49.7751L51.8358 51.1893ZM41.0171 40.3706L51.8358 51.1893L53.25 49.7751L42.4313 38.9564L41.0171 40.3706ZM40.3706 40.3706C40.5491 40.192 40.8386 40.192 41.0171 40.3706L42.4313 38.9564C41.4717 37.9968 39.916 37.9968 38.9564 38.9564L40.3706 40.3706ZM40.3706 41.0171C40.1921 40.8385 40.1921 40.5491 40.3706 40.3706L38.9564 38.9564C37.9968 39.9159 37.9968 41.4717 38.9564 42.4313L40.3706 41.0171ZM51.1893 51.8358L40.3706 41.0171L38.9564 42.4313L49.7751 53.25L51.1893 51.8358ZM51.8358 51.8358C51.6573 52.0143 51.3679 52.0143 51.1893 51.8358L49.7751 53.25C50.7347 54.2096 52.2905 54.2096 53.25 53.25L51.8358 51.8358ZM67.5286 42.2938C68.7038 41.6152 69.1065 40.1125 68.428 38.9372L66.6959 39.9372C66.8221 40.1559 66.7472 40.4355 66.5286 40.5617L67.5286 42.2938ZM64.1721 41.3944C64.8506 42.5696 66.3533 42.9723 67.5286 42.2938L66.5286 40.5617C66.3099 40.6879 66.0303 40.613 65.9041 40.3944L64.1721 41.3944ZM56.5221 28.1442L64.1721 41.3944L65.9041 40.3944L58.2541 27.1442L56.5221 28.1442ZM57.4214 24.7877C56.2462 25.4662 55.8435 26.969 56.5221 28.1442L58.2541 27.1442C58.1279 26.9255 58.2028 26.646 58.4214 26.5197L57.4214 24.7877ZM60.778 25.687C60.0994 24.5118 58.5967 24.1091 57.4214 24.7877L58.4214 26.5197C58.6401 26.3935 58.9197 26.4684 59.0459 26.687L60.778 25.687ZM68.428 38.9372L60.778 25.687L59.0459 26.687L66.6959 39.9372L68.428 38.9372ZM83.9619 32.9145C84.0272 33.1584 83.8825 33.4091 83.6386 33.4744L84.1563 35.4063C85.4671 35.055 86.245 33.7077 85.8938 32.3969L83.9619 32.9145ZM80.002 18.1359L83.9619 32.9145L85.8938 32.3969L81.9338 17.6182L80.002 18.1359ZM79.4421 17.8126C79.686 17.7473 79.9366 17.892 80.002 18.1359L81.9338 17.6182C81.5826 16.3074 80.2353 15.5295 78.9244 15.8808L79.4421 17.8126ZM79.1188 18.3725C79.0535 18.1286 79.1982 17.878 79.4421 17.8126L78.9244 15.8808C77.6136 16.232 76.8358 17.5793 77.187 18.8901L79.1188 18.3725ZM83.0788 33.1512L79.1188 18.3725L77.187 18.8901L81.1469 33.6688L83.0788 33.1512ZM83.6386 33.4744C83.3948 33.5398 83.1441 33.395 83.0788 33.1512L81.1469 33.6688C81.4981 34.9796 82.8455 35.7575 84.1563 35.4063L83.6386 33.4744ZM90.3627 13.6056C89.0172 13.7828 88.0701 15.0171 88.2472 16.3625L90.2301 16.1014C90.1972 15.8511 90.3734 15.6215 90.6237 15.5885L90.3627 13.6056ZM93.1195 15.721C92.9424 14.3756 91.7081 13.4285 90.3627 13.6056L90.6237 15.5885C90.874 15.5556 91.1037 15.7318 91.1366 15.9821L93.1195 15.721ZM95.1165 30.8902L93.1195 15.721L91.1366 15.9821L93.1337 31.1512L95.1165 30.8902ZM93.0012 33.647C94.3466 33.4699 95.2937 32.2356 95.1165 30.8902L93.1337 31.1512C93.1666 31.4015 92.9904 31.6312 92.7401 31.6641L93.0012 33.647ZM90.2443 31.5316C90.4214 32.877 91.6557 33.8241 93.0011 33.647L92.7401 31.6641C92.4898 31.6971 92.2601 31.5209 92.2272 31.2705L90.2443 31.5316ZM88.2472 16.3625L90.2443 31.5316L92.2272 31.2705L90.2301 16.1014L88.2472 16.3625ZM112.863 15.9821C112.896 15.7318 113.126 15.5556 113.376 15.5885L113.637 13.6057C112.292 13.4285 111.058 14.3756 110.88 15.7211L112.863 15.9821ZM110.866 31.1512L112.863 15.9821L110.88 15.7211L108.883 30.8902L110.866 31.1512ZM111.26 31.6641C111.01 31.6312 110.833 31.4015 110.866 31.1512L108.883 30.8902C108.706 32.2356 109.653 33.4699 110.999 33.647L111.26 31.6641ZM111.773 31.2706C111.74 31.5209 111.51 31.6971 111.26 31.6641L110.999 33.647C112.344 33.8241 113.579 32.877 113.756 31.5316L111.773 31.2706ZM113.77 16.1014L111.773 31.2706L113.756 31.5316L115.753 16.3625L113.77 16.1014ZM113.376 15.5885C113.627 15.6215 113.803 15.8511 113.77 16.1014L115.753 16.3625C115.93 15.0171 114.983 13.7828 113.637 13.6057L113.376 15.5885ZM136.119 19.6295C134.865 19.1102 133.428 19.7056 132.909 20.9593L134.756 21.7247C134.853 21.4914 135.12 21.3807 135.354 21.4773L136.119 19.6295ZM137.449 22.8399C137.968 21.5862 137.373 20.1488 136.119 19.6295L135.354 21.4773C135.587 21.5739 135.698 21.8413 135.601 22.0746L137.449 22.8399ZM131.594 36.9753L137.449 22.8399L135.601 22.0746L129.746 36.2099L131.594 36.9753ZM128.383 38.3051C129.637 38.8244 131.074 38.229 131.594 36.9753L129.746 36.2099C129.649 36.4432 129.382 36.554 129.149 36.4573L128.383 38.3051ZM127.053 35.0947C126.534 36.3484 127.13 37.7858 128.383 38.3051L129.149 36.4573C128.915 36.3607 128.805 36.0933 128.901 35.8601L127.053 35.0947ZM132.909 20.9593L127.053 35.0947L128.901 35.8601L134.756 21.7247L132.909 20.9593ZM154.417 32.938C154.571 32.7377 154.858 32.6999 155.058 32.8536L156.275 31.2669C155.199 30.4408 153.656 30.6439 152.83 31.7205L154.417 32.938ZM145.103 45.0763L154.417 32.938L152.83 31.7205L143.516 43.8588L145.103 45.0763ZM145.187 45.7173C144.987 45.5636 144.949 45.2766 145.103 45.0763L143.516 43.8588C142.69 44.9354 142.893 46.4779 143.97 47.304L145.187 45.7173ZM145.828 45.6329C145.675 45.8332 145.388 45.871 145.187 45.7173L143.97 47.304C145.046 48.1301 146.589 47.927 147.415 46.8504L145.828 45.6329ZM155.142 33.4946L145.828 45.6329L147.415 46.8504L156.729 34.7121L155.142 33.4946ZM155.058 32.8536C155.258 33.0073 155.296 33.2943 155.142 33.4946L156.729 34.7121C157.555 33.6355 157.352 32.093 156.275 31.2669L155.058 32.8536ZM172.733 47.7246C171.907 46.648 170.365 46.4449 169.288 47.271L170.505 48.8577C170.706 48.704 170.993 48.7418 171.146 48.9421L172.733 47.7246ZM172.28 51.1698C173.356 50.3437 173.559 48.8012 172.733 47.7246L171.146 48.9421C171.3 49.1424 171.262 49.4294 171.062 49.5831L172.28 51.1698ZM160.141 60.4838L172.28 51.1698L171.062 49.5831L158.924 58.8971L160.141 60.4838ZM156.696 60.0303C157.522 61.1069 159.065 61.3099 160.141 60.4838L158.924 58.8971C158.723 59.0508 158.436 59.013 158.283 58.8127L156.696 60.0303ZM157.15 56.5851C156.073 57.4112 155.87 58.9537 156.696 60.0303L158.283 58.8127C158.129 58.6124 158.167 58.3255 158.367 58.1718L157.15 56.5851ZM169.288 47.271L157.15 56.5851L158.367 58.1718L170.505 48.8577L169.288 47.271ZM181.925 68.399C182.159 68.3024 182.426 68.4132 182.523 68.6464L184.37 67.8811C183.851 66.6273 182.414 66.0319 181.16 66.5512L181.925 68.399ZM167.79 74.2541L181.925 68.399L181.16 66.5512L167.025 72.4063L167.79 74.2541ZM167.543 74.8514C167.446 74.6181 167.557 74.3507 167.79 74.2541L167.025 72.4063C165.771 72.9256 165.176 74.363 165.695 75.6167L167.543 74.8514ZM168.14 75.0987C167.907 75.1954 167.639 75.0846 167.543 74.8513L165.695 75.6167C166.214 76.8705 167.652 77.4658 168.905 76.9465L168.14 75.0987ZM182.275 69.2437L168.14 75.0987L168.905 76.9465L183.041 71.0914L182.275 69.2437ZM182.523 68.6464C182.619 68.8797 182.509 69.1471 182.275 69.2437L183.041 71.0914C184.294 70.5721 184.89 69.1348 184.37 67.881L182.523 68.6464ZM190.394 90.3626C190.217 89.0172 188.983 88.0701 187.638 88.2472L187.899 90.2301C188.149 90.1972 188.379 90.3734 188.412 90.6237L190.394 90.3626ZM188.279 93.1195C189.624 92.9423 190.572 91.7081 190.394 90.3626L188.412 90.6237C188.444 90.874 188.268 91.1036 188.018 91.1366L188.279 93.1195ZM173.11 95.1165L188.279 93.1195L188.018 91.1366L172.849 93.1336L173.11 95.1165ZM170.353 93.0011C170.53 94.3465 171.764 95.2937 173.11 95.1165L172.849 93.1336C172.599 93.1666 172.369 92.9904 172.336 92.7401L170.353 93.0011ZM172.468 90.2443C171.123 90.4214 170.176 91.6557 170.353 93.0011L172.336 92.7401C172.303 92.4898 172.479 92.2601 172.729 92.2272L172.468 90.2443ZM187.638 88.2472L172.468 90.2443L172.729 92.2272L187.899 90.2301L187.638 88.2472ZM31.1512 110.866C31.4015 110.833 31.6311 111.01 31.6641 111.26L33.647 110.999C33.4698 109.653 32.2356 108.706 30.8901 108.883L31.1512 110.866ZM15.9821 112.863L31.1512 110.866L30.8901 108.883L15.721 110.88L15.9821 112.863ZM15.5885 113.376C15.5556 113.126 15.7318 112.896 15.9821 112.863L15.721 110.88C14.3756 111.058 13.4285 112.292 13.6056 113.637L15.5885 113.376ZM16.1014 113.77C15.8511 113.803 15.6215 113.627 15.5885 113.376L13.6056 113.637C13.7827 114.983 15.017 115.93 16.3625 115.753L16.1014 113.77ZM31.2705 111.773L16.1014 113.77L16.3625 115.753L31.5316 113.756L31.2705 111.773ZM31.6641 111.26C31.697 111.51 31.5208 111.74 31.2705 111.773L31.5316 113.756C32.877 113.579 33.8241 112.344 33.647 110.999L31.6641 111.26ZM190.394 113.637C190.572 112.292 189.624 111.058 188.279 110.881L188.018 112.863C188.268 112.896 188.444 113.126 188.412 113.376L190.394 113.637ZM187.638 115.753C188.983 115.93 190.217 114.983 190.394 113.637L188.412 113.376C188.379 113.627 188.149 113.803 187.899 113.77L187.638 115.753ZM172.468 113.756L187.638 115.753L187.899 113.77L172.73 111.773L172.468 113.756ZM170.353 110.999C170.176 112.344 171.123 113.579 172.468 113.756L172.73 111.773C172.479 111.74 172.303 111.51 172.336 111.26L170.353 110.999ZM173.11 108.883C171.764 108.706 170.53 109.653 170.353 110.999L172.336 111.26C172.369 111.01 172.599 110.833 172.849 110.866L173.11 108.883ZM188.279 110.881L173.11 108.883L172.849 110.866L188.018 112.863L188.279 110.881ZM31.2705 92.2272C31.5208 92.2601 31.697 92.4898 31.6641 92.7401L33.647 93.0011C33.8241 91.6557 32.877 90.4214 31.5316 90.2443L31.2705 92.2272ZM16.1014 90.2301L31.2705 92.2272L31.5316 90.2443L16.3625 88.2472L16.1014 90.2301ZM15.5885 90.6237C15.6215 90.3734 15.8511 90.1972 16.1014 90.2301L16.3625 88.2472C15.017 88.0701 13.7828 89.0172 13.6056 90.3627L15.5885 90.6237ZM15.9821 91.1366C15.7318 91.1037 15.5556 90.874 15.5885 90.6237L13.6056 90.3627C13.4285 91.7081 14.3756 92.9424 15.721 93.1195L15.9821 91.1366ZM31.1512 93.1337L15.9821 91.1366L15.721 93.1195L30.8901 95.1165L31.1512 93.1337ZM31.6641 92.7401C31.6311 92.9904 31.4015 93.1666 31.1512 93.1337L30.8901 95.1165C32.2356 95.2937 33.4699 94.3466 33.647 93.0011L31.6641 92.7401ZM38.3051 75.6167C38.8244 74.363 38.229 72.9257 36.9753 72.4063L36.2099 74.2541C36.4432 74.3507 36.554 74.6181 36.4573 74.8514L38.3051 75.6167ZM35.0947 76.9465C36.3484 77.4659 37.7858 76.8705 38.3051 75.6167L36.4573 74.8514C36.3607 75.0846 36.0933 75.1954 35.8601 75.0988L35.0947 76.9465ZM20.9593 71.0915L35.0947 76.9465L35.86 75.0988L21.7247 69.2437L20.9593 71.0915ZM19.6295 67.8811C19.1102 69.1348 19.7056 70.5722 20.9593 71.0915L21.7247 69.2437C21.4914 69.1471 21.3807 68.8797 21.4773 68.6464L19.6295 67.8811ZM22.8399 66.5513C21.5862 66.032 20.1488 66.6273 19.6295 67.8811L21.4773 68.6464C21.5739 68.4132 21.8413 68.3024 22.0746 68.399L22.8399 66.5513ZM36.9753 72.4063L22.8399 66.5513L22.0746 68.399L36.2099 74.2541L36.9753 72.4063ZM45.6329 58.1717C45.8332 58.3254 45.871 58.6124 45.7173 58.8127L47.304 60.0302C48.1301 58.9536 47.927 57.4112 46.8504 56.585L45.6329 58.1717ZM33.4946 48.8577L45.6329 58.1717L46.8504 56.585L34.7121 47.271L33.4946 48.8577ZM32.8536 48.9421C33.0073 48.7418 33.2943 48.704 33.4946 48.8577L34.7121 47.271C33.6355 46.4449 32.093 46.6479 31.2669 47.7246L32.8536 48.9421ZM32.938 49.583C32.7377 49.4294 32.6999 49.1424 32.8536 48.9421L31.2669 47.7246C30.4408 48.8012 30.6438 50.3436 31.7205 51.1698L32.938 49.583ZM45.0763 58.8971L32.938 49.583L31.7205 51.1698L43.8588 60.4838L45.0763 58.8971ZM45.7173 58.8127C45.5636 59.013 45.2766 59.0508 45.0763 58.8971L43.8588 60.4838C44.9354 61.3099 46.4778 61.1068 47.304 60.0302L45.7173 58.8127ZM60.0303 47.304C61.1069 46.4779 61.31 44.9354 60.4838 43.8588L58.8971 45.0763C59.0508 45.2766 59.013 45.5636 58.8128 45.7173L60.0303 47.304ZM56.5851 46.8504C57.4112 47.927 58.9537 48.1301 60.0303 47.304L58.8127 45.7173C58.6124 45.871 58.3255 45.8332 58.1718 45.6329L56.5851 46.8504ZM47.271 34.7121L56.5851 46.8504L58.1718 45.6329L48.8577 33.4946L47.271 34.7121ZM47.7246 31.2669C46.648 32.093 46.4449 33.6355 47.271 34.7121L48.8577 33.4946C48.704 33.2943 48.7418 33.0073 48.9421 32.8536L47.7246 31.2669ZM51.1698 31.7205C50.3437 30.6439 48.8012 30.4408 47.7246 31.2669L48.9421 32.8536C49.1424 32.6999 49.4294 32.7377 49.5831 32.938L51.1698 31.7205ZM60.4838 43.8588L51.1698 31.7205L49.5831 32.938L58.8971 45.0763L60.4838 43.8588ZM75.0988 35.8601C75.1954 36.0933 75.0846 36.3608 74.8514 36.4574L75.6167 38.3051C76.8705 37.7858 77.4658 36.3485 76.9465 35.0947L75.0988 35.8601ZM69.2437 21.7247L75.0988 35.8601L76.9465 35.0947L71.0915 20.9594L69.2437 21.7247ZM68.6464 21.4773C68.8797 21.3807 69.1471 21.4915 69.2437 21.7247L71.0915 20.9594C70.5722 19.7056 69.1348 19.1103 67.8811 19.6296L68.6464 21.4773ZM68.399 22.0746C68.3024 21.8414 68.4132 21.574 68.6464 21.4773L67.8811 19.6296C66.6273 20.1489 66.0319 21.5862 66.5513 22.84L68.399 22.0746ZM74.2541 36.21L68.399 22.0746L66.5513 22.84L72.4063 36.9753L74.2541 36.21ZM74.8514 36.4574C74.6181 36.554 74.3507 36.4432 74.2541 36.21L72.4063 36.9753C72.9256 38.2291 74.363 38.8245 75.6167 38.3051L74.8514 36.4574Z" fill="#607C82" style="mix-blend-mode:overlay" mask="url(#path-3-inside-1_1_1195)"/>
</g>
</g>
<defs>
<filter id="filter0_ddiiii_1_1195" x="0.642853" y="0.642853" width="202.714" height="202.714" filterUnits="userSpaceOnUse" color-interpolation-filters="sRGB">
<feFlood flood-opacity="0" result="BackgroundImageFix"/>
<feColorMatrix in="SourceAlpha" type="matrix" values="0 0 0 0 0 0 0 0 0 0 0 0 0 0 0 0 0 0 127 0" result="hardAlpha"/>
<feOffset dx="1" dy="1"/>
<feGaussianBlur stdDeviation="1"/>
<feColorMatrix type="matrix" values="0 0 0 0 0.0588235 0 0 0 0 0.0784314 0 0 0 0 0.101961 0 0 0 0.5 0"/>
<feBlend mode="normal" in2="BackgroundImageFix" result="effect1_dropShadow_1_1195"/>
<feColorMatrix in="SourceAlpha" type="matrix" values="0 0 0 0 0 0 0 0 0 0 0 0 0 0 0 0 0 0 127 0" result="hardAlpha"/>
<feOffset dx="-1" dy="-1"/>
<feGaussianBlur stdDeviation="1"/>
<feColorMatrix type="matrix" values="0 0 0 0 0.239216 0 0 0 0 0.321569 0 0 0 0 0.407843 0 0 0 0.3 0"/>
<feBlend mode="normal" in2="effect1_dropShadow_1_1195" result="effect2_dropShadow_1_1195"/>
<feBlend mode="normal" in="SourceGraphic" in2="effect2_dropShadow_1_1195" result="shape"/>
<feColorMatrix in="SourceAlpha" type="matrix" values="0 0 0 0 0 0 0 0 0 0 0 0 0 0 0 0 0 0 127 0" result="hardAlpha"/>
<feOffset dx="-1" dy="-1"/>
<feGaussianBlur stdDeviation="1.5"/>
<feComposite in2="hardAlpha" operator="arithmetic" k2="-1" k3="1"/>
<feColorMatrix type="matrix" values="0 0 0 0 0.0588235 0 0 0 0 0.0784314 0 0 0 0 0.101961 0 0 0 0.9 0"/>
<feBlend mode="normal" in2="shape" result="effect3_innerShadow_1_1195"/>
<feColorMatrix in="SourceAlpha" type="matrix" values="0 0 0 0 0 0 0 0 0 0 0 0 0 0 0 0 0 0 127 0" result="hardAlpha"/>
<feOffset dx="1" dy="1"/>
<feGaussianBlur stdDeviation="1"/>
<feComposite in2="hardAlpha" operator="arithmetic" k2="-1" k3="1"/>
<feColorMatrix type="matrix" values="0 0 0 0 0.239216 0 0 0 0 0.321569 0 0 0 0 0.407843 0 0 0 0.9 0"/>
<feBlend mode="normal" in2="effect3_innerShadow_1_1195" result="effect4_innerShadow_1_1195"/>
<feColorMatrix in="SourceAlpha" type="matrix" values="0 0 0 0 0 0 0 0 0 0 0 0 0 0 0 0 0 0 127 0" result="hardAlpha"/>
<feOffset dx="-1" dy="1"/>
<feGaussianBlur stdDeviation="1"/>
<feComposite in2="hardAlpha" operator="arithmetic" k2="-1" k3="1"/>
<feColorMatrix type="matrix" values="0 0 0 0 0.0588235 0 0 0 0 0.0784314 0 0 0 0 0.101961 0 0 0 0.2 0"/>
<feBlend mode="normal" in2="effect4_innerShadow_1_1195" result="effect5_innerShadow_1_1195"/>
<feColorMatrix in="SourceAlpha" type="matrix" values="0 0 0 0 0 0 0 0 0 0 0 0 0 0 0 0 0 0 127 0" result="hardAlpha"/>
<feOffset dx="1" dy="-1"/>
<feGaussianBlur stdDeviation="1"/>
<feComposite in2="hardAlpha" operator="arithmetic" k2="-1" k3="1"/>
<feColorMatrix type="matrix" values="0 0 0 0 0.0588235 0 0 0 0 0.0784314 0 0 0 0 0.101961 0 0 0 0.2 0"/>
<feBlend mode="normal" in2="effect5_innerShadow_1_1195" result="effect6_innerShadow_1_1195"/>
</filter>
<filter id="filter1_d_1_1195" x="10.8429" y="11.8429" width="184.314" height="120.054" filterUnits="userSpaceOnUse" color-interpolation-filters="sRGB">
<feFlood flood-opacity="0" result="BackgroundImageFix"/>
<feColorMatrix in="SourceAlpha" type="matrix" values="0 0 0 0 0 0 0 0 0 0 0 0 0 0 0 0 0 0 127 0" result="hardAlpha"/>
<feOffset dx="1" dy="2"/>
<feGaussianBlur stdDeviation="2"/>
<feColorMatrix type="matrix" values="0 0 0 0 0 0 0 0 0 0 0 0 0 0 0 0 0 0 0.25 0"/>
<feBlend mode="normal" in2="BackgroundImageFix" result="effect1_dropShadow_1_1195"/>
<feBlend mode="normal" in="SourceGraphic" in2="effect1_dropShadow_1_1195" result="shape"/>
</filter>
<radialGradient id="paint0_angular_1_1195" cx="0" cy="0" r="1" gradientUnits="userSpaceOnUse" gradientTransform="translate(102 102) rotate(105.651) scale(105.928)">
<stop offset="0.217592" stop-color="#597592"/>
<stop offset="0.426319" stop-color="#506983"/>
<stop offset="0.859911" stop-color="#3C546C"/>
</radialGradient>
<radialGradient id="paint1_radial_1_1195" cx="0" cy="0" r="1" gradientUnits="userSpaceOnUse" gradientTransform="translate(52.4571 9.44404) rotate(45.0628) scale(160.912 177.893)">
<stop stop-color="#FFD6C7"/>
<stop offset="0.237763" stop-color="#FDD4C6"/>
<stop offset="1" stop-color="#19252C"/>
</radialGradient>
</defs>
</svg>
