<svg xmlns="http://www.w3.org/2000/svg" version="1.1" xmlns:xlink="http://www.w3.org/1999/xlink" xmlns:svgjs="http://svgjs.dev/svgjs" width="1000" height="1000" viewBox="0 0 1000 1000"><rect width="1000" height="1000" fill="#000000"></rect><g transform="matrix(0.7,0,0,0.7,149.8281078699012,236.66340080971662)"><svg viewBox="0 0 328 247" data-background-color="#ffffff" preserveAspectRatio="xMidYMid meet" height="753" width="1000" xmlns="http://www.w3.org/2000/svg" xmlns:xlink="http://www.w3.org/1999/xlink"><g id="tight-bounds" transform="matrix(1,0,0,1,0.08054374096059291,-0.09999999999999432)"><svg viewBox="0 0 327.8389125180788 247.2" height="247.2" width="327.8389125180788"><g><svg viewBox="0 0 395.52 298.2334929341504" height="247.2" width="327.8389125180788"><g transform="matrix(1,0,0,1,0,219.24775366487984)"><svg viewBox="0 0 395.52 78.98573926927054" height="78.98573926927054" width="395.52"><g id="textblocktransform"><svg viewBox="0 0 395.52 78.98573926927054" height="78.98573926927054" width="395.52" id="textblock"><g><svg viewBox="0 0 395.52 52.909117767747226" height="52.909117767747226" width="395.52"><g transform="matrix(1,0,0,1,0,0)"><svg width="395.52" viewBox="2.15 -32.2 243.68 32.6" height="52.909117767747226" data-palette-color="#001f3f"><path d="M15.9-32.2Q18.35-32.2 20.6-31.53 22.85-30.85 24.65-29.55L24.65-29.55 24.1-27.2 23.7-27.15Q20.2-29.95 15.8-29.95L15.8-29.95Q10.45-29.95 7.63-26.35 4.8-22.75 4.8-15.95L4.8-15.95Q4.8-9.15 7.55-5.58 10.3-2 15.45-2L15.45-2Q17.75-2 20-2.83 22.25-3.65 24.2-5.15L24.2-5.15 24.6-5 24.4-2.55Q20.1 0.3 15.3 0.3L15.3 0.3Q9 0.3 5.58-3.88 2.15-8.05 2.15-15.8L2.15-15.8Q2.15-23.65 5.73-27.93 9.3-32.2 15.9-32.2L15.9-32.2ZM42.15-13.1Q45.9-7.05 50.8-0.6L50.8-0.6 50.8-0.25Q50 0.15 48.55 0.4L48.55 0.4 48.15 0.2Q43.3-6.75 39.95-12.5L39.95-12.5 33.65-12.5 33.65-9.85 33.75 0 31.15 0 31.3-9.7 31.15-31.95 39.65-32Q44.2-32 46.65-29.7 49.1-27.4 49.1-23.05L49.1-23.05Q49.1-19.55 47.3-16.98 45.5-14.4 42.15-13.1L42.15-13.1ZM33.8-29.7L33.7-14.8 40.2-14.7Q43.25-15.55 44.85-17.63 46.45-19.7 46.45-22.9L46.45-22.9Q46.45-26.25 44.62-27.98 42.8-29.7 39.35-29.8L39.35-29.8 33.8-29.7ZM74.95-2.35L75.15-2.05 74.9 0 58.05 0 58.2-9.7 58.05-31.95 74.84-31.95 75.05-31.65 74.75-29.6 67.3-29.7 60.7-29.65 60.6-17.6 66.84-17.55 72.2-17.6 72.4-17.35 72.15-15.3 60.6-15.35 60.55-9.85 60.65-2.25 67.09-2.2 74.95-2.35ZM92.34-32.15Q99.14-32.15 102.77-28.25 106.39-24.35 106.39-17.05L106.39-17.05Q106.39-8.7 102.54-4.23 98.69 0.25 91.49 0.25L91.49 0.25Q89.64 0.25 86.77 0.18 83.89 0.1 81.49 0L81.49 0 81.64-9.7 81.49-31.95 92.34-32.15ZM91.84-1.95Q97.59-1.95 100.67-5.7 103.74-9.45 103.74-16.6L103.74-16.6Q103.74-23.2 100.79-26.58 97.84-29.95 92.19-29.95L92.19-29.95Q90.79-29.95 88.44-29.88 86.09-29.8 84.14-29.7L84.14-29.7 83.99-9.85 84.09-2.25Q86.14-2.15 88.32-2.05 90.49-1.95 91.84-1.95L91.84-1.95ZM116.24-31.95L116.09-9.85 116.19 0 113.59 0 113.74-9.7 113.59-31.95 116.24-31.95ZM143.14-31.95L143.39-31.65 143.14-29.65 137.79-29.8 133.89-29.8 133.74-9.85 133.84 0 131.24 0 131.39-9.7 131.24-29.8 127.34-29.8 121.89-29.65 121.69-29.95 121.94-31.95 143.14-31.95ZM158.24-32.2Q160.69-32.2 162.94-31.53 165.19-30.85 166.99-29.55L166.99-29.55 166.44-27.2 166.04-27.15Q162.54-29.95 158.14-29.95L158.14-29.95Q152.79-29.95 149.96-26.35 147.14-22.75 147.14-15.95L147.14-15.95Q147.14-9.15 149.89-5.58 152.64-2 157.79-2L157.79-2Q160.09-2 162.34-2.83 164.59-3.65 166.54-5.15L166.54-5.15 166.94-5 166.74-2.55Q162.44 0.3 157.64 0.3L157.64 0.3Q151.34 0.3 147.91-3.88 144.49-8.05 144.49-15.8L144.49-15.8Q144.49-23.65 148.06-27.93 151.64-32.2 158.24-32.2L158.24-32.2ZM184.38-31.95L195.53 0 192.83 0 192.13-2.7 189.73-9.6 182.13-9.7 175.28-9.6 172.68-2.8 171.93 0 169.23 0 181.43-31.95 184.38-31.95ZM182.43-11.85L188.93-11.9 182.98-28.95 182.68-28.95 176.18-11.9 182.43-11.85ZM212.83-13.1Q216.58-7.05 221.48-0.6L221.48-0.6 221.48-0.25Q220.68 0.15 219.23 0.4L219.23 0.4 218.83 0.2Q213.98-6.75 210.63-12.5L210.63-12.5 204.33-12.5 204.33-9.85 204.43 0 201.83 0 201.98-9.7 201.83-31.95 210.33-32Q214.88-32 217.33-29.7 219.78-27.4 219.78-23.05L219.78-23.05Q219.78-19.55 217.98-16.98 216.18-14.4 212.83-13.1L212.83-13.1ZM204.48-29.7L204.38-14.8 210.88-14.7Q213.93-15.55 215.53-17.63 217.13-19.7 217.13-22.9L217.13-22.9Q217.13-26.25 215.31-27.98 213.48-29.7 210.03-29.8L210.03-29.8 204.48-29.7ZM245.63-2.35L245.83-2.05 245.58 0 228.73 0 228.88-9.7 228.73-31.95 245.53-31.95 245.73-31.65 245.43-29.6 237.98-29.7 231.38-29.65 231.28-17.6 237.53-17.55 242.88-17.6 243.08-17.35 242.83-15.3 231.28-15.35 231.23-9.85 231.33-2.25 237.78-2.2 245.63-2.35Z" opacity="1" transform="matrix(1,0,0,1,0,0)" fill="#ffffff" class="wordmark-text-0" data-fill-palette-color="primary" id="text-0"></path></svg></g></svg></g><g transform="matrix(1,0,0,1,75.54432,65.39969065388593)"><svg viewBox="0 0 244.43135999999998 13.586048615384616" height="13.586048615384616" width="244.43135999999998"><g transform="matrix(1,0,0,1,0,0)"><svg width="244.43135999999998" viewBox="3.86 -38.79 913.97 50.8" height="13.586048615384616" data-palette-color="url(#9823e39f-a384-4c5a-9828-6bc04532acb7)"></svg></g></svg></g></svg></g></svg></g><g transform="matrix(1,0,0,1,100.62669605369877,0)"><svg viewBox="0 0 194.26660789260245 194.26660789260245" height="194.26660789260245" width="194.26660789260245"><g><svg></svg></g><g id="icon-0"><svg viewBox="0 0 194.26660789260245 194.26660789260245" height="194.26660789260245" width="194.26660789260245"><g><path d="M0 97.133c0-53.645 43.488-97.133 97.133-97.133 53.645 0 97.133 43.488 97.134 97.133 0 53.645-43.488 97.133-97.134 97.134-53.645 0-97.133-43.488-97.133-97.134zM97.133 189.495c51.01 0 92.362-41.352 92.362-92.362 0-51.01-41.352-92.362-92.362-92.362-51.01 0-92.362 41.352-92.362 92.362 0 51.01 41.352 92.362 92.362 92.362z" data-fill-palette-color="accent" fill="#ffffff" stroke="transparent"></path><ellipse rx="96.1619709068382" ry="96.1619709068382" cx="97.13330394630123" cy="97.13330394630123" fill="#ffffff" stroke="transparent" stroke-width="0" fill-opacity="1" data-fill-palette-color="accent"></ellipse></g><g transform="matrix(1,0,0,1,39.134516481830794,69.20528863481469)"><svg viewBox="0 0 115.99757492894086 55.85603062297307" height="55.85603062297307" width="115.99757492894086"><g><svg xmlns="http://www.w3.org/2000/svg" xmlns:xlink="http://www.w3.org/1999/xlink" version="1.1" x="0" y="0" viewBox="0.171 27.755999999999997 99.57477573433793 47.94799999999999" enable-background="new 0 0 100 100" xml:space="preserve" height="55.85603062297307" width="115.99757492894086" class="icon-z$-0" data-fill-palette-color="quaternary" id="z$-0"><g fill="#ffffff" data-fill-palette-color="quaternary"><g fill="#ffffff" data-fill-palette-color="quaternary"><path fill-rule="evenodd" clip-rule="evenodd" fill="#000000" d="M98.541 48.067c-1.058-1.159-4.059-1.526-6.473-1.17-1.197 0.176-18.73 5.17-18.73 5.17 0.499 1.508 1.32 4.267-1.65 7.088-2.026 1.712-5.147 2.222-9.201 2.145-4.049-0.077-8.438-0.687-11.818-1.093-1.098-0.132-4.144-0.522-4.144-0.522s2.144-0.956 5.053-1.052c3.63-0.115 6.486-0.091 8.133 0 1.802 0.101 4.392 0.317 5.475 0.356 4.95 0.178 6.127-2.893 6.151-4.113 0.062-3.446-1.955-4.591-8.21-5.095-4.021-0.324-8.341-0.583-11.351-0.949-5.803-0.712-9.971-2.29-12.097-2.484-1.463-0.137-5.253-0.823-8.854 2.058C19.902 57.139 0.171 62.608 0.171 62.619 3.15 72.14 19.586 75.704 19.586 75.704c6.987-6.101 14.73-6.854 21.353-7.088 1.141-0.042 12.243-0.043 22.497 1.148 2.062 0.142 3.828-0.929 3.828-0.929 15.382-9.506 28.501-14.711 28.501-14.711 3.112-1.131 4.027-2.481 3.979-3.516C99.653 48.727 98.553 48.081 98.541 48.067zM63.139 48.03h10.513c1.161 0 2.104-0.823 2.104-1.838 0-1.016-0.942-1.838-2.104-1.838H63.139c-1.162 0-2.103 0.822-2.103 1.838C61.036 47.207 61.977 48.03 63.139 48.03zM63.139 42.498h10.513c1.161 0 2.104-0.823 2.104-1.838 0-1.016-0.942-1.837-2.104-1.837H63.139c-1.162 0-2.103 0.822-2.103 1.837C61.036 41.674 61.977 42.498 63.139 42.498zM63.139 36.964h10.513c1.161 0 2.104-0.823 2.104-1.837 0-1.016-0.942-1.838-2.104-1.838H63.139c-1.162 0-2.103 0.822-2.103 1.838C61.036 36.141 61.977 36.964 63.139 36.964zM44.695 44.342h10.513c1.162 0 2.104-0.823 2.104-1.838 0-1.016-0.941-1.837-2.104-1.837H44.695c-1.162 0-2.102 0.822-2.102 1.837C42.593 43.519 43.534 44.342 44.695 44.342zM44.695 38.809h10.513c1.162 0 2.104-0.823 2.104-1.838 0-1.016-0.941-1.838-2.104-1.838H44.695c-1.162 0-2.102 0.822-2.102 1.838C42.593 37.986 43.534 38.809 44.695 38.809zM63.139 31.432h10.513c1.161 0 2.104-0.823 2.104-1.838 0-1.016-0.942-1.838-2.104-1.838H63.139c-1.162 0-2.103 0.822-2.103 1.838C61.036 30.608 61.977 31.432 63.139 31.432z" data-fill-palette-color="quaternary"></path></g></g></svg></g></svg></g></svg></g></svg></g><g></g></svg></g><defs></defs><mask id="a0f716b9-3935-48db-a30b-d573f95d03be"><g id="SvgjsG1124"><svg viewBox="0 0 327.8389125180788 247.2" height="247.2" width="327.8389125180788"><g><svg viewBox="0 0 395.52 298.2334929341504" height="247.2" width="327.8389125180788"><g transform="matrix(1,0,0,1,0,219.24775366487984)"><svg viewBox="0 0 395.52 78.98573926927054" height="78.98573926927054" width="395.52"><g id="SvgjsG1123"><svg viewBox="0 0 395.52 78.98573926927054" height="78.98573926927054" width="395.52" id="SvgjsSvg1122"><g><svg viewBox="0 0 395.52 52.909117767747226" height="52.909117767747226" width="395.52"><g transform="matrix(1,0,0,1,0,0)"><svg width="395.52" viewBox="2.15 -32.2 243.68 32.6" height="52.909117767747226" data-palette-color="#001f3f"></svg></g></svg></g><g transform="matrix(1,0,0,1,75.54432,65.39969065388593)"><svg viewBox="0 0 244.43135999999998 13.586048615384616" height="13.586048615384616" width="244.43135999999998"><g transform="matrix(1,0,0,1,0,0)"><svg width="244.43135999999998" viewBox="3.86 -38.79 913.97 50.8" height="13.586048615384616" data-palette-color="url(#9823e39f-a384-4c5a-9828-6bc04532acb7)"><path d="M37.84-35.69L37.84 0 25.2 0 12.16-25.15 11.94-25.15Q12.4-19.21 12.4-16.09L12.4-16.09 12.4 0 3.86 0 3.86-35.69 16.46-35.69 29.44-10.89 29.59-10.89Q29.25-16.28 29.25-19.56L29.25-19.56 29.25-35.69 37.84-35.69ZM69.65 0L63.03 0 61.2-3.66 61.01-3.66Q59.08-1.27 57.08-0.39 55.08 0.49 51.9 0.49L51.9 0.49Q48 0.49 45.75-1.86 43.5-4.2 43.5-8.45L43.5-8.45Q43.5-12.87 46.58-15.03 49.66-17.19 55.49-17.46L55.49-17.46 60.1-17.6 60.1-17.99Q60.1-21.41 56.74-21.41L56.74-21.41Q53.71-21.41 49.05-19.36L49.05-19.36 46.29-25.66Q51.12-28.15 58.49-28.15L58.49-28.15Q63.82-28.15 66.73-25.51 69.65-22.88 69.65-18.14L69.65-18.14 69.65 0ZM55.95-6.25L55.95-6.25Q57.69-6.25 58.92-7.35 60.15-8.45 60.15-10.21L60.15-10.21 60.15-12.35 57.96-12.26Q53.24-12.08 53.24-8.79L53.24-8.79Q53.24-6.25 55.95-6.25ZM92.84 0L83.39 0 72.85-27.66 82.81-27.66 87.5-11.3Q87.52-11.18 87.59-10.89 87.67-10.6 87.74-10.19 87.81-9.79 87.87-9.34 87.93-8.89 87.93-8.5L87.93-8.5 88.11-8.5Q88.11-9.77 88.54-11.25L88.54-11.25 93.45-27.66 103.39-27.66 92.84 0ZM116.28-27.66L116.28 0 106.73 0 106.73-27.66 116.28-27.66ZM106.49-34.55L106.49-34.55Q106.49-36.69 107.68-37.74 108.88-38.79 111.54-38.79L111.54-38.79Q114.2-38.79 115.42-37.72 116.64-36.65 116.64-34.55L116.64-34.55Q116.64-30.35 111.54-30.35L111.54-30.35Q106.49-30.35 106.49-34.55ZM139.39-27.66L149.04-27.66 149.04-23.05 145.25-21.66Q146.03-20.24 146.03-18.36L146.03-18.36Q146.03-13.89 142.9-11.43 139.76-8.96 133.53-8.96L133.53-8.96Q132-8.96 131.09-9.16L131.09-9.16Q130.75-8.52 130.75-7.96L130.75-7.96Q130.75-7.25 131.9-6.87 133.05-6.49 134.9-6.49L134.9-6.49 139.49-6.49Q148.79-6.49 148.79 1.34L148.79 1.34Q148.79 6.4 144.48 9.2 140.18 12.01 132.39 12.01L132.39 12.01Q126.5 12.01 123.32 10.05 120.13 8.08 120.13 4.39L120.13 4.39Q120.13-0.56 126.28-2L126.28-2Q125.01-2.54 124.07-3.74 123.13-4.93 123.13-6.1L123.13-6.1Q123.13-7.4 123.84-8.39 124.55-9.38 126.8-10.74L126.8-10.74Q124.65-11.69 123.42-13.72 122.18-15.75 122.18-18.65L122.18-18.65Q122.18-23.17 125.26-25.66 128.33-28.15 134.05-28.15L134.05-28.15Q134.8-28.15 136.66-27.98 138.52-27.81 139.39-27.66L139.39-27.66ZM128.19 3.44L128.19 3.44Q128.19 4.61 129.46 5.33 130.73 6.05 132.85 6.05L132.85 6.05Q136.32 6.05 138.41 5.19 140.49 4.32 140.49 2.95L140.49 2.95Q140.49 1.86 139.22 1.4 137.95 0.95 135.59 0.95L135.59 0.95 131.85 0.95Q130.31 0.95 129.25 1.67 128.19 2.39 128.19 3.44ZM131.19-18.6L131.19-18.6Q131.19-14.36 134.15-14.36L134.15-14.36Q135.51-14.36 136.26-15.41 137-16.46 137-18.55L137-18.55Q137-22.85 134.15-22.85L134.15-22.85Q131.19-22.85 131.19-18.6ZM177.89 0L171.28 0 169.45-3.66 169.25-3.66Q167.32-1.27 165.32-0.39 163.32 0.49 160.14 0.49L160.14 0.49Q156.24 0.49 153.99-1.86 151.75-4.2 151.75-8.45L151.75-8.45Q151.75-12.87 154.82-15.03 157.9-17.19 163.73-17.46L163.73-17.46 168.35-17.6 168.35-17.99Q168.35-21.41 164.98-21.41L164.98-21.41Q161.95-21.41 157.29-19.36L157.29-19.36 154.53-25.66Q159.36-28.15 166.74-28.15L166.74-28.15Q172.06-28.15 174.98-25.51 177.89-22.88 177.89-18.14L177.89-18.14 177.89 0ZM164.2-6.25L164.2-6.25Q165.93-6.25 167.16-7.35 168.4-8.45 168.4-10.21L168.4-10.21 168.4-12.35 166.2-12.26Q161.49-12.08 161.49-8.79L161.49-8.79Q161.49-6.25 164.2-6.25ZM197.93-7.06L197.93-7.06Q199.86-7.06 202.55-8.01L202.55-8.01 202.55-1.05Q200.62-0.22 198.87 0.13 197.13 0.49 194.78 0.49L194.78 0.49Q189.98 0.49 187.85-1.87 185.73-4.22 185.73-9.11L185.73-9.11 185.73-20.51 182.38-20.51 182.38-24.39 186.63-27.39 189.1-33.2 195.35-33.2 195.35-27.66 202.13-27.66 202.13-20.51 195.35-20.51 195.35-9.74Q195.35-7.06 197.93-7.06ZM216.97-27.66L216.97 0 207.43 0 207.43-27.66 216.97-27.66ZM207.18-34.55L207.18-34.55Q207.18-36.69 208.38-37.74 209.58-38.79 212.24-38.79L212.24-38.79Q214.9-38.79 216.12-37.72 217.34-36.65 217.34-34.55L217.34-34.55Q217.34-30.35 212.24-30.35L212.24-30.35Q207.18-30.35 207.18-34.55ZM250.64 0L241.09 0 241.09-15.09Q241.09-17.85 240.3-19.25 239.51-20.65 237.75-20.65L237.75-20.65Q235.33-20.65 234.26-18.73 233.18-16.8 233.18-12.11L233.18-12.11 233.18 0 223.64 0 223.64-27.66 230.84-27.66 232.04-24.24 232.6-24.24Q233.82-26.2 235.98-27.17 238.14-28.15 240.95-28.15L240.95-28.15Q245.54-28.15 248.09-25.49 250.64-22.83 250.64-17.99L250.64-17.99 250.64 0ZM273.59-27.66L283.23-27.66 283.23-23.05 279.45-21.66Q280.23-20.24 280.23-18.36L280.23-18.36Q280.23-13.89 277.09-11.43 273.95-8.96 267.73-8.96L267.73-8.96Q266.19-8.96 265.29-9.16L265.29-9.16Q264.94-8.52 264.94-7.96L264.94-7.96Q264.94-7.25 266.09-6.87 267.24-6.49 269.09-6.49L269.09-6.49 273.68-6.49Q282.99-6.49 282.99 1.34L282.99 1.34Q282.99 6.4 278.68 9.2 274.37 12.01 266.58 12.01L266.58 12.01Q260.7 12.01 257.51 10.05 254.32 8.08 254.32 4.39L254.32 4.39Q254.32-0.56 260.48-2L260.48-2Q259.21-2.54 258.27-3.74 257.33-4.93 257.33-6.1L257.33-6.1Q257.33-7.4 258.03-8.39 258.74-9.38 260.99-10.74L260.99-10.74Q258.84-11.69 257.61-13.72 256.37-15.75 256.37-18.65L256.37-18.65Q256.37-23.17 259.45-25.66 262.53-28.15 268.24-28.15L268.24-28.15Q269-28.15 270.85-27.98 272.71-27.81 273.59-27.66L273.59-27.66ZM262.38 3.44L262.38 3.44Q262.38 4.61 263.65 5.33 264.92 6.05 267.04 6.05L267.04 6.05Q270.51 6.05 272.6 5.19 274.68 4.32 274.68 2.95L274.68 2.95Q274.68 1.86 273.42 1.4 272.15 0.95 269.78 0.95L269.78 0.95 266.04 0.95Q264.5 0.95 263.44 1.67 262.38 2.39 262.38 3.44ZM265.38-18.6L265.38-18.6Q265.38-14.36 268.34-14.36L268.34-14.36Q269.7-14.36 270.45-15.41 271.19-16.46 271.19-18.55L271.19-18.55Q271.19-22.85 268.34-22.85L268.34-22.85Q265.38-22.85 265.38-18.6ZM313.01 0.49L313.01 0.49Q306.22 0.49 302.72-3.17 299.22-6.84 299.22-13.7L299.22-13.7Q299.22-20.58 303-24.37 306.78-28.15 313.77-28.15L313.77-28.15Q318.58-28.15 322.82-26.05L322.82-26.05 320.02-18.99Q318.28-19.75 316.82-20.2 315.35-20.65 313.77-20.65L313.77-20.65Q311.45-20.65 310.18-18.85 308.91-17.04 308.91-13.75L308.91-13.75Q308.91-7.1 313.82-7.1L313.82-7.1Q318.01-7.1 321.87-9.55L321.87-9.55 321.87-1.95Q318.19 0.49 313.01 0.49ZM344.06-28.15L344.06-28.15Q345.31-28.15 346.43-27.95L346.43-27.95 346.97-27.86 346.11-18.85Q344.94-19.14 342.87-19.14L342.87-19.14Q339.74-19.14 338.32-17.71 336.91-16.28 336.91-13.6L336.91-13.6 336.91 0 327.36 0 327.36-27.66 334.47-27.66 335.96-23.24 336.42-23.24Q337.62-25.44 339.75-26.79 341.89-28.15 344.06-28.15ZM364.18 0.49L364.18 0.49Q357.27 0.49 353.45-3.19 349.63-6.86 349.63-13.65L349.63-13.65Q349.63-20.65 353.17-24.4 356.71-28.15 363.27-28.15L363.27-28.15Q369.52-28.15 372.93-24.89 376.33-21.63 376.33-15.5L376.33-15.5 376.33-11.25 359.27-11.25Q359.37-8.94 360.97-7.62 362.57-6.3 365.32-6.3L365.32-6.3Q367.84-6.3 369.95-6.77 372.06-7.25 374.53-8.4L374.53-8.4 374.53-1.54Q372.28-0.39 369.89 0.05 367.5 0.49 364.18 0.49ZM363.61-21.66L363.61-21.66Q361.93-21.66 360.8-20.59 359.66-19.53 359.46-17.26L359.46-17.26 367.67-17.26Q367.62-19.26 366.53-20.46 365.45-21.66 363.61-21.66ZM390.32 0.49L390.32 0.49Q387.37 0.49 385.16-1.2 382.95-2.88 381.74-6.15 380.53-9.42 380.53-13.79L380.53-13.79Q380.53-20.53 383.24-24.34 385.95-28.15 390.69-28.15L390.69-28.15Q393.01-28.15 394.75-27.22 396.5-26.29 397.94-24.1L397.94-24.1 398.13-24.1Q397.67-27.34 397.67-30.59L397.67-30.59 397.67-37.99 407.29-37.99 407.29 0 400.09 0 398.04-3.49 397.67-3.49Q395.2 0.49 390.32 0.49ZM394.23-7.06L394.23-7.06Q396.52-7.06 397.46-8.5 398.4-9.94 398.48-12.94L398.48-12.94 398.48-13.7Q398.48-17.36 397.43-18.91 396.38-20.46 394.13-20.46L394.13-20.46Q392.25-20.46 391.21-18.69 390.17-16.92 390.17-13.65L390.17-13.65Q390.17-10.42 391.22-8.74 392.27-7.06 394.23-7.06ZM423.47-27.66L423.47 0 413.93 0 413.93-27.66 423.47-27.66ZM413.68-34.55L413.68-34.55Q413.68-36.69 414.88-37.74 416.08-38.79 418.74-38.79L418.74-38.79Q421.4-38.79 422.62-37.72 423.84-36.65 423.84-34.55L423.84-34.55Q423.84-30.35 418.74-30.35L418.74-30.35Q413.68-30.35 413.68-34.55ZM443.69-7.06L443.69-7.06Q445.61-7.06 448.3-8.01L448.3-8.01 448.3-1.05Q446.37-0.22 444.63 0.13 442.88 0.49 440.54 0.49L440.54 0.49Q435.73 0.49 433.6-1.87 431.48-4.22 431.48-9.11L431.48-9.11 431.48-20.51 428.13-20.51 428.13-24.39 432.38-27.39 434.85-33.2 441.1-33.2 441.1-27.66 447.88-27.66 447.88-20.51 441.1-20.51 441.1-9.74Q441.1-7.06 443.69-7.06ZM474.49-8.5L474.49-8.5Q474.49-4.05 471.47-1.78 468.44 0.49 462.77 0.49L462.77 0.49Q459.7 0.49 457.43 0.16 455.16-0.17 452.79-1.05L452.79-1.05 452.79-8.69Q455.01-7.71 457.66-7.08 460.31-6.45 462.38-6.45L462.38-6.45Q465.48-6.45 465.48-7.86L465.48-7.86Q465.48-8.59 464.62-9.17 463.75-9.74 459.58-11.4L459.58-11.4Q455.77-12.96 454.25-14.95 452.74-16.94 452.74-20L452.74-20Q452.74-23.85 455.72-26 458.7-28.15 464.14-28.15L464.14-28.15Q466.88-28.15 469.28-27.55 471.69-26.95 474.27-25.81L474.27-25.81 471.69-19.65Q469.78-20.51 467.66-21.11 465.53-21.7 464.19-21.7L464.19-21.7Q461.85-21.7 461.85-20.56L461.85-20.56Q461.85-19.85 462.67-19.35 463.48-18.85 467.39-17.31L467.39-17.31Q470.29-16.11 471.72-14.97 473.15-13.82 473.82-12.27 474.49-10.72 474.49-8.5ZM480.3-7.3L488.65-7.3 488.99-6.74Q486.62 2.56 484.7 6.96L484.7 6.96 477.88 6.96Q478.59 3.59 479.31-0.6 480.03-4.79 480.3-7.3L480.3-7.3ZM525.12-28.15L525.12-28.15Q529.64-28.15 532.29-24.37 534.94-20.58 534.94-13.89L534.94-13.89Q534.94-7.15 532.26-3.33 529.59 0.49 524.83 0.49L524.83 0.49Q523.29 0.49 522.09 0.16 520.9-0.17 519.96-0.76 519.02-1.34 517.77-2.71L517.77-2.71 517.19-2.71 515.67 0 508.23 0 508.23-37.99 517.77-37.99 517.77-29.39Q517.77-27.86 517.43-24.1L517.43-24.1 517.77-24.1Q519.16-26.25 520.98-27.2 522.8-28.15 525.12-28.15ZM521.63-20.65L521.63-20.65Q519.63-20.65 518.7-19.26 517.77-17.87 517.77-14.89L517.77-14.89 517.77-13.55Q517.77-10.16 518.7-8.68 519.63-7.2 521.73-7.2L521.73-7.2Q523.41-7.2 524.32-8.92 525.22-10.64 525.22-13.99L525.22-13.99Q525.22-20.65 521.63-20.65ZM567.28 0L560.08 0 558.88-3.44 558.32-3.44Q557.13-1.54 554.99-0.52 552.85 0.49 549.97 0.49L549.97 0.49Q545.41 0.49 542.87-2.16 540.33-4.81 540.33-9.64L540.33-9.64 540.33-27.66 549.87-27.66 549.87-12.55Q549.87-9.84 550.64-8.45 551.41-7.06 553.17-7.06L553.17-7.06Q555.64-7.06 556.69-9 557.74-10.94 557.74-15.55L557.74-15.55 557.74-27.66 567.28-27.66 567.28 0ZM583.47-27.66L583.47 0 573.92 0 573.92-27.66 583.47-27.66ZM573.68-34.55L573.68-34.55Q573.68-36.69 574.87-37.74 576.07-38.79 578.73-38.79L578.73-38.79Q581.39-38.79 582.61-37.72 583.83-36.65 583.83-34.55L583.83-34.55Q583.83-30.35 578.73-30.35L578.73-30.35Q573.68-30.35 573.68-34.55ZM599.67-37.99L599.67 0 590.13 0 590.13-37.99 599.67-37.99ZM614.88 0.49L614.88 0.49Q611.93 0.49 609.72-1.2 607.51-2.88 606.3-6.15 605.09-9.42 605.09-13.79L605.09-13.79Q605.09-20.53 607.8-24.34 610.51-28.15 615.25-28.15L615.25-28.15Q617.57-28.15 619.31-27.22 621.06-26.29 622.5-24.1L622.5-24.1 622.69-24.1Q622.23-27.34 622.23-30.59L622.23-30.59 622.23-37.99 631.85-37.99 631.85 0 624.65 0 622.6-3.49 622.23-3.49Q619.76 0.49 614.88 0.49ZM618.79-7.06L618.79-7.06Q621.08-7.06 622.02-8.5 622.96-9.94 623.04-12.94L623.04-12.94 623.04-13.7Q623.04-17.36 621.99-18.91 620.94-20.46 618.69-20.46L618.69-20.46Q616.81-20.46 615.77-18.69 614.73-16.92 614.73-13.65L614.73-13.65Q614.73-10.42 615.78-8.74 616.83-7.06 618.79-7.06ZM648.03-27.66L648.03 0 638.49 0 638.49-27.66 648.03-27.66ZM638.24-34.55L638.24-34.55Q638.24-36.69 639.44-37.74 640.64-38.79 643.3-38.79L643.3-38.79Q645.96-38.79 647.18-37.72 648.4-36.65 648.4-34.55L648.4-34.55Q648.4-30.35 643.3-30.35L643.3-30.35Q638.24-30.35 638.24-34.55ZM681.7 0L672.15 0 672.15-15.09Q672.15-17.85 671.36-19.25 670.56-20.65 668.81-20.65L668.81-20.65Q666.39-20.65 665.32-18.73 664.24-16.8 664.24-12.11L664.24-12.11 664.24 0 654.7 0 654.7-27.66 661.9-27.66 663.09-24.24 663.66-24.24Q664.88-26.2 667.04-27.17 669.2-28.15 672.01-28.15L672.01-28.15Q676.6-28.15 679.15-25.49 681.7-22.83 681.7-17.99L681.7-17.99 681.7 0ZM704.64-27.66L714.29-27.66 714.29-23.05 710.5-21.66Q711.29-20.24 711.29-18.36L711.29-18.36Q711.29-13.89 708.15-11.43 705.01-8.96 698.79-8.96L698.79-8.96Q697.25-8.96 696.34-9.16L696.34-9.16Q696-8.52 696-7.96L696-7.96Q696-7.25 697.15-6.87 698.3-6.49 700.15-6.49L700.15-6.49 704.74-6.49Q714.04-6.49 714.04 1.34L714.04 1.34Q714.04 6.4 709.73 9.2 705.43 12.01 697.64 12.01L697.64 12.01Q691.75 12.01 688.57 10.05 685.38 8.08 685.38 4.39L685.38 4.39Q685.38-0.56 691.53-2L691.53-2Q690.26-2.54 689.32-3.74 688.38-4.93 688.38-6.1L688.38-6.1Q688.38-7.4 689.09-8.39 689.8-9.38 692.05-10.74L692.05-10.74Q689.9-11.69 688.67-13.72 687.43-15.75 687.43-18.65L687.43-18.65Q687.43-23.17 690.51-25.66 693.58-28.15 699.3-28.15L699.3-28.15Q700.05-28.15 701.91-27.98 703.77-27.81 704.64-27.66L704.64-27.66ZM693.44 3.44L693.44 3.44Q693.44 4.61 694.71 5.33 695.98 6.05 698.1 6.05L698.1 6.05Q701.57 6.05 703.66 5.19 705.74 4.32 705.74 2.95L705.74 2.95Q705.74 1.86 704.47 1.4 703.2 0.95 700.84 0.95L700.84 0.95 697.1 0.95Q695.56 0.95 694.5 1.67 693.44 2.39 693.44 3.44ZM696.44-18.6L696.44-18.6Q696.44-14.36 699.4-14.36L699.4-14.36Q700.76-14.36 701.51-15.41 702.25-16.46 702.25-18.55L702.25-18.55Q702.25-22.85 699.4-22.85L699.4-22.85Q696.44-22.85 696.44-18.6ZM748.36-27.66L748.36-20.51 742.48-20.51 742.48 0 732.94 0 732.94-20.51 729.27-20.51 729.27-25.2 733.13-27.54 733.13-28Q733.13-33.47 735.36-35.86 737.6-38.26 742.53-38.26L742.53-38.26Q744.43-38.26 746.13-37.96 747.83-37.67 750.07-36.94L750.07-36.94 748.02-30.76Q746.27-31.25 744.58-31.25L744.58-31.25Q743.48-31.25 742.98-30.58 742.48-29.91 742.48-28.39L742.48-28.39 742.48-27.66 748.36-27.66ZM779.03 0L771.82 0 770.63-3.44 770.07-3.44Q768.87-1.54 766.73-0.52 764.6 0.49 761.72 0.49L761.72 0.49Q757.15 0.49 754.61-2.16 752.07-4.81 752.07-9.64L752.07-9.64 752.07-27.66 761.62-27.66 761.62-12.55Q761.62-9.84 762.39-8.45 763.16-7.06 764.92-7.06L764.92-7.06Q767.38-7.06 768.43-9 769.48-10.94 769.48-15.55L769.48-15.55 769.48-27.66 779.03-27.66 779.03 0ZM799.17-7.06L799.17-7.06Q801.09-7.06 803.78-8.01L803.78-8.01 803.78-1.05Q801.85-0.22 800.11 0.13 798.36 0.49 796.02 0.49L796.02 0.49Q791.21 0.49 789.08-1.87 786.96-4.22 786.96-9.11L786.96-9.11 786.96-20.51 783.61-20.51 783.61-24.39 787.86-27.39 790.33-33.2 796.58-33.2 796.58-27.66 803.36-27.66 803.36-20.51 796.58-20.51 796.58-9.74Q796.58-7.06 799.17-7.06ZM835.52 0L828.31 0 827.12-3.44 826.56-3.44Q825.36-1.54 823.22-0.52 821.09 0.49 818.21 0.49L818.21 0.49Q813.64 0.49 811.1-2.16 808.56-4.81 808.56-9.64L808.56-9.64 808.56-27.66 818.11-27.66 818.11-12.55Q818.11-9.84 818.88-8.45 819.65-7.06 821.4-7.06L821.4-7.06Q823.87-7.06 824.92-9 825.97-10.94 825.97-15.55L825.97-15.55 825.97-27.66 835.52-27.66 835.52 0ZM858.8-28.15L858.8-28.15Q860.05-28.15 861.17-27.95L861.17-27.95 861.71-27.86 860.85-18.85Q859.68-19.14 857.61-19.14L857.61-19.14Q854.48-19.14 853.07-17.71 851.65-16.28 851.65-13.6L851.65-13.6 851.65 0 842.1 0 842.1-27.66 849.21-27.66 850.7-23.24 851.16-23.24Q852.36-25.44 854.5-26.79 856.63-28.15 858.8-28.15ZM878.92 0.49L878.92 0.49Q872.01 0.49 868.19-3.19 864.37-6.86 864.37-13.65L864.37-13.65Q864.37-20.65 867.91-24.4 871.45-28.15 878.02-28.15L878.02-28.15Q884.27-28.15 887.67-24.89 891.08-21.63 891.08-15.5L891.08-15.5 891.08-11.25 874.01-11.25Q874.11-8.94 875.71-7.62 877.31-6.3 880.07-6.3L880.07-6.3Q882.58-6.3 884.69-6.77 886.8-7.25 889.27-8.4L889.27-8.4 889.27-1.54Q887.02-0.39 884.63 0.05 882.24 0.49 878.92 0.49ZM878.36-21.66L878.36-21.66Q876.67-21.66 875.54-20.59 874.4-19.53 874.21-17.26L874.21-17.26 882.41-17.26Q882.36-19.26 881.27-20.46 880.19-21.66 878.36-21.66ZM917.83-8.5L917.83-8.5Q917.83-4.05 914.81-1.78 911.78 0.49 906.11 0.49L906.11 0.49Q903.04 0.49 900.77 0.16 898.5-0.17 896.13-1.05L896.13-1.05 896.13-8.69Q898.35-7.71 901-7.08 903.65-6.45 905.72-6.45L905.72-6.45Q908.82-6.45 908.82-7.86L908.82-7.86Q908.82-8.59 907.96-9.17 907.09-9.74 902.92-11.4L902.92-11.4Q899.11-12.96 897.59-14.95 896.08-16.94 896.08-20L896.08-20Q896.08-23.85 899.06-26 902.04-28.15 907.48-28.15L907.48-28.15Q910.22-28.15 912.62-27.55 915.02-26.95 917.61-25.81L917.61-25.81 915.02-19.65Q913.12-20.51 911-21.11 908.87-21.7 907.53-21.7L907.53-21.7Q905.19-21.7 905.19-20.56L905.19-20.56Q905.19-19.85 906-19.35 906.82-18.85 910.73-17.31L910.73-17.31Q913.63-16.11 915.06-14.97 916.49-13.82 917.16-12.27 917.83-10.72 917.83-8.5Z" opacity="1" transform="matrix(1,0,0,1,0,0)" fill="white" class="slogan-text-1" id="SvgjsPath1120"></path></svg></g></svg></g></svg></g></svg></g><g transform="matrix(1,0,0,1,100.62669605369877,0)"><svg viewBox="0 0 194.26660789260245 194.26660789260245" height="194.26660789260245" width="194.26660789260245"><g><svg></svg></g><g id="SvgjsG1119"><svg viewBox="0 0 194.26660789260245 194.26660789260245" height="194.26660789260245" width="194.26660789260245"><g></g><g transform="matrix(1,0,0,1,39.134516481830794,69.20528863481469)"><svg viewBox="0 0 115.99757492894086 55.85603062297307" height="55.85603062297307" width="115.99757492894086"><g><svg xmlns="http://www.w3.org/2000/svg" xmlns:xlink="http://www.w3.org/1999/xlink" version="1.1" x="0" y="0" viewBox="0.171 27.755999999999997 99.57477573433793 47.94799999999999" enable-background="new 0 0 100 100" xml:space="preserve" height="55.85603062297307" width="115.99757492894086" class="icon-z$-0" data-fill-palette-color="quaternary" id="SvgjsSvg1118"></svg></g></svg></g></svg></g></svg></g><g></g></svg></g><defs><mask></mask></defs></svg></g></mask><linearGradient x1="0.054" x2="0.941" y1="0.5" y2="0.5" id="9823e39f-a384-4c5a-9828-6bc04532acb7"><stop stop-color="#0f3054" offset="0"></stop><stop stop-color="#3b8dcb" offset="0.498"></stop><stop stop-color="#0f3054" offset="1"></stop></linearGradient><rect width="327.83891251807887" height="247.2" fill="#ffffff" mask="url(#a0f716b9-3935-48db-a30b-d573f95d03be)" data-fill-palette-color="secondary"></rect></svg><rect width="327.8389125180788" height="247.2" fill="none" stroke="none" visibility="hidden"></rect></g></svg></g></svg>